<svg width="120" height="120" viewBox="0 0 512 512" fill="none" xmlns="http://www.w3.org/2000/svg">
<rect width="512" height="512" fill="#1A0238"/>
<path d="M182.927 308.87L189.486 304.487C177.644 281.659 171.723 256.639 171.723 229.428C171.723 208.244 176.915 190.255 187.3 175.463C197.867 160.67 212.715 153.274 231.845 153.274C241.865 153.274 250.337 155.009 257.26 158.479C255.438 168.706 252.159 186.512 247.422 211.896C237.22 266.501 232.118 297.821 232.118 305.856C232.118 323.206 235.033 336.172 240.863 344.755C232.847 350.051 225.468 353.704 218.727 355.713C211.986 357.722 203.241 358.726 192.492 358.726C181.925 358.726 172.269 356.443 163.524 351.878C154.961 347.312 147.856 341.285 142.208 333.798C136.742 326.128 132.097 316.723 128.271 305.582C121.53 286.042 117.43 261.205 115.973 231.072H111.6C103.22 269.058 99.0292 295.629 99.0292 310.787C99.0292 325.945 101.762 337.907 107.228 346.673C96.2964 354.891 84.9096 359 73.0673 359C61.225 359 52.7532 355.621 47.6519 348.864C42.5506 341.925 40 331.698 40 318.184C40 304.487 45.739 265.862 57.2169 202.309L42.7328 172.997C63.138 159.848 81.3569 153.274 97.3895 153.274C113.422 153.274 125.538 156.105 133.736 161.766C141.935 167.245 147.674 175.371 150.953 186.146C154.232 196.921 156.601 208.335 158.058 220.388C159.698 232.259 162.431 246.595 166.257 263.396C170.265 280.198 175.822 295.355 182.927 308.87Z" fill="white"/>
<path d="M321.514 359C309.854 359 301.473 355.621 296.372 348.864C291.271 341.925 288.72 331.698 288.72 318.184C288.72 304.487 294.459 265.862 305.937 202.309L291.453 172.997C312.04 159.666 330.806 153 347.749 153C359.045 153 365.786 158.479 367.972 169.436C386.738 158.661 405.139 153.274 423.175 153.274C435.018 153.274 445.402 156.013 454.33 161.492C464.897 167.884 470.18 178.933 470.18 194.638C470.18 220.571 455.878 239.381 427.275 251.069C456.425 256.183 471 272.527 471 300.104C471 318.001 463.621 332.246 448.864 342.838C434.107 353.43 417.528 358.726 399.126 358.726C380.908 358.726 366.241 354.891 355.128 347.221C344.379 355.074 333.174 359 321.514 359ZM407.872 294.077C407.872 285.494 405.321 279.193 400.22 275.176C395.3 271.158 388.651 269.149 380.27 269.149C371.889 269.149 362.506 270.884 352.122 274.354C349.207 289.877 347.749 303.117 347.749 314.074C356.676 318.275 365.968 320.375 375.624 320.375C385.28 320.375 393.023 318.092 398.853 313.527C404.865 308.961 407.872 302.478 407.872 294.077ZM390.108 189.433C383.003 189.433 375.351 190.803 367.152 193.543C366.059 200.665 362.689 218.927 357.041 248.33C372.162 247.234 385.007 243.582 395.574 237.372C406.141 230.98 411.424 221.849 411.424 209.979C411.424 196.282 404.319 189.433 390.108 189.433Z" fill="#F1510C"/>
</svg>
