<svg width="21" height="21" viewBox="0 0 21 21" fill="none" xmlns="http://www.w3.org/2000/svg">
<path d="M9.80005 7.5H11.8V5.5H9.80005V7.5ZM10.8 18.5C6.39005 18.5 2.80005 14.91 2.80005 10.5C2.80005 6.09 6.39005 2.5 10.8 2.5C15.21 2.5 18.8 6.09 18.8 10.5C18.8 14.91 15.21 18.5 10.8 18.5ZM10.8 0.5C9.48683 0.5 8.18647 0.758658 6.97321 1.2612C5.75996 1.76375 4.65757 2.50035 3.72898 3.42893C1.85362 5.3043 0.800049 7.84784 0.800049 10.5C0.800049 13.1522 1.85362 15.6957 3.72898 17.5711C4.65757 18.4997 5.75996 19.2362 6.97321 19.7388C8.18647 20.2413 9.48683 20.5 10.8 20.5C13.4522 20.5 15.9958 19.4464 17.8711 17.5711C19.7465 15.6957 20.8 13.1522 20.8 10.5C20.8 9.18678 20.5414 7.88642 20.0388 6.67317C19.5363 5.45991 18.7997 4.35752 17.8711 3.42893C16.9425 2.50035 15.8401 1.76375 14.6269 1.2612C13.4136 0.758658 12.1133 0.5 10.8 0.5ZM9.80005 15.5H11.8V9.5H9.80005V15.5Z" fill="white"/>
</svg>
