<svg width="33" height="33" viewBox="0 0 33 33" fill="none" xmlns="http://www.w3.org/2000/svg">
<path d="M16.0658 0.874237C7.19302 0.874237 0 8.06713 0 16.94C0 25.8129 7.19302 33.0058 16.0658 33.0058C24.9386 33.0058 32.1316 25.8129 32.1316 16.94C32.1316 8.06713 24.9386 0.874237 16.0658 0.874237ZM21.6185 17.7916L13.5856 22.8122C13.4231 22.9137 13.2383 22.9647 13.0535 22.9647C12.886 22.9647 12.7183 22.923 12.5666 22.8387C12.2474 22.6617 12.0493 22.3258 12.0493 21.9606V11.9195C12.0493 11.5542 12.2474 11.2183 12.5666 11.0414C12.8858 10.8634 13.2761 10.8742 13.5856 11.0679L21.6185 16.0884C21.912 16.2723 22.0905 16.5939 22.0905 16.94C22.0905 17.2861 21.912 17.6078 21.6185 17.7916Z" fill="black"/>
</svg>
