<svg width="392" height="65" viewBox="0 0 392 65" fill="none" xmlns="http://www.w3.org/2000/svg">
<g clip-path="url(#clip0_2_1147)">
<mask id="mask0_2_1147" style="mask-type:luminance" maskUnits="userSpaceOnUse" x="0" y="0" width="392" height="65">
<path d="M391.92 0H0V65H391.92V0Z" fill="white"/>
</mask>
<g mask="url(#mask0_2_1147)">
<path d="M4.22999 22.2498C4.22999 44.9498 4.21999 44.5498 5.07999 47.5098C7.32999 55.2398 13.73 61.0498 21.77 62.6498C23.84 63.0498 28.02 63.0198 30.1 62.5698C33.11 61.9198 35.31 60.9798 37.87 59.2898C45.77 53.9998 49.24 43.9798 46.32 34.8198C45.27 31.5698 43.56 28.7798 41.01 26.2198C37.85 23.0398 34.15 21.0698 29.72 20.1898C27.67 19.7898 23.61 19.8198 21.55 20.2698C18.05 21.0298 14.9 22.5098 12.14 24.7298L11.63 25.1298V6.25982L7.92999 3.78982L4.22999 1.31982V22.2498ZM29.24 27.6798C33.11 28.6798 36.41 31.2898 38.29 34.8198C42.04 41.8198 39.22 50.5398 32.03 54.1298C29.3 55.4898 25.94 55.9298 23.04 55.3298C17.78 54.2398 13.74 50.5298 12.14 45.3198C11.77 44.0998 11.72 43.7198 11.72 41.4998C11.7 39.3698 11.75 38.8598 12.06 37.7998C13.4 33.1398 16.83 29.4998 21.31 28.0098C22.08 27.7498 23.13 27.4698 23.62 27.3898C24.98 27.1698 27.88 27.3298 29.23 27.6798" fill="#333333"/>
<path d="M97.5799 22.5602C97.6299 46.2302 97.5699 44.7702 98.7099 48.1902C100.95 54.9102 106.42 60.2002 113.14 62.1502C114.61 62.5702 117.29 63.0102 118.41 63.0102H119.12V55.6502L117.89 55.5402C114.57 55.2602 111.2 53.6002 108.85 51.0802C107.15 49.2702 106.06 47.2402 105.35 44.6302C105.03 43.3702 105.01 43.1202 105.01 35.3202V27.3002L111.3 27.2502L117.58 27.2202V19.8202H104.93V6.1702L101.43 3.8602C99.5199 2.6002 97.8499 1.5002 97.7299 1.4402C97.5499 1.3302 97.5299 4.5202 97.5799 22.5702" fill="#333333"/>
<path d="M173.61 22.7101C173.66 43.7801 173.66 44.1301 173.98 45.5801C174.97 50.0801 176.8 53.4601 179.95 56.6201C181.65 58.3001 183.64 59.7801 185.43 60.6901C187.84 61.8901 191.01 62.7601 193.76 62.9601L195.16 63.0501V55.6001H194.43C193.32 55.6001 191.05 55.0801 189.74 54.5401C186.45 53.1701 183.51 50.2701 182.15 47.0801C181.9 46.4601 181.55 45.4801 181.36 44.8901C181.05 43.8301 181.05 43.4601 180.99 25.0001L180.94 6.19008L179.91 5.51008C179.34 5.12008 177.67 4.03008 176.21 3.07008L173.54 1.33008L173.6 22.7201L173.61 22.7101Z" fill="#FF2727"/>
<path d="M285.21 31.9401V62.5501H292.61V49.5801L295.69 45.7401C297.39 43.6101 298.8 41.8801 298.84 41.8801C298.88 41.8801 301.35 46.5201 304.35 52.2101L309.81 62.5401H314.08C316.44 62.5401 318.37 62.5101 318.37 62.4901C318.37 62.4601 315.15 56.4101 311.2 49.0701C307.25 41.7101 304.01 35.6501 304 35.5801C303.97 35.5201 306.78 31.9401 310.25 27.6401C313.7 23.3401 316.53 19.7901 316.53 19.7401C316.53 19.6901 314.42 19.6601 311.86 19.6601H307.17L300.01 28.5901C296.08 33.5101 292.81 37.5301 292.75 37.5301C292.67 37.5501 292.63 30.4801 292.63 21.8501V6.18006L291.12 5.19006C290.3 4.63006 288.64 3.54006 287.43 2.75006L285.23 1.31006V31.9401H285.21Z" fill="#FF2727"/>
<path d="M125.6 22.4801C125.6 45.6401 125.57 44.7601 126.56 47.8901C128.64 54.4701 133.92 59.8101 140.41 61.8901C143.05 62.7401 144.25 62.9201 147.12 62.9201C149.99 62.9201 151.27 62.7201 153.83 61.9001C159.26 60.1401 163.87 56.1601 166.48 50.9801C167.2 49.5501 168.13 46.6201 168.41 44.9501C168.72 43.0501 168.7 39.7101 168.39 37.8401C166.91 29.0301 160.25 22.1701 151.32 20.2401C149.25 19.8101 145.35 19.7601 143.29 20.1801C140.11 20.8001 136.74 22.2601 134.38 24.0501C133.66 24.6101 133.01 25.0501 132.96 25.0501C132.91 25.0501 132.87 20.7901 132.87 15.5801V6.14009L129.37 3.86009C127.46 2.60009 125.82 1.53009 125.75 1.52009C125.69 1.49009 125.63 10.9301 125.63 22.4901M150.69 27.6901C151.37 27.8801 152.56 28.3201 153.31 28.6901C162.29 33.1201 164.09 44.9101 156.84 51.7801C155.64 52.9101 154.73 53.5101 153.03 54.3101C150.83 55.3401 149.85 55.5401 147.06 55.5301C144.93 55.5101 144.53 55.4801 143.31 55.1101C138.11 53.5201 134.32 49.4501 133.22 44.2801C132.93 42.8801 132.93 39.9601 133.23 38.5401C134.45 32.9001 138.91 28.5501 144.63 27.4501C146.16 27.1601 149.09 27.2801 150.67 27.6801" fill="#FF2727"/>
<path d="M365.82 19.7799C365.76 19.8299 365.71 29.4799 365.71 41.2199V62.5499H373.1L373.15 50.8599C373.21 39.3399 373.21 39.1699 373.55 37.9499C373.98 36.4099 374.92 34.3999 375.8 33.1799C376.57 32.0999 378.27 30.4399 379.29 29.7399C381.22 28.4299 383.89 27.4699 386.07 27.2899L387.3 27.1799V19.7799L385.96 19.8899C383.11 20.1199 380.16 20.9199 377.66 22.1699C376.41 22.7999 373.91 24.4399 373.57 24.8499C373.46 24.9699 373.32 25.0699 373.25 25.0699C373.18 25.0699 373.11 23.8499 373.11 22.3699V19.6699H369.52C367.53 19.6699 365.87 19.7199 365.82 19.7799Z" fill="#FF2727"/>
<path d="M69.71 19.9801C64.7 20.6101 60.55 22.6601 56.97 26.2901C53.81 29.4801 52.03 32.7501 51.08 37.1501C50.59 39.4601 50.59 43.4701 51.08 45.7201C51.56 47.8501 52.21 49.6701 53.13 51.4301C56.15 57.2101 61.61 61.2801 68.15 62.6401C70.09 63.0401 74.38 63.0401 76.32 62.6401C86.05 60.6201 93.04 52.7101 93.76 42.8401L93.87 41.4201H86.47L86.36 42.6501C86.18 44.8701 85.26 47.4301 83.96 49.3901C83.1 50.6901 80.84 52.8101 79.49 53.6001C75.53 55.9101 70.9 56.2101 66.63 54.4301C65.41 53.9201 63.41 52.5801 62.56 51.7001L61.9 51.0201L77.32 42.8001C85.82 38.2801 92.76 34.5001 92.76 34.4001C92.76 33.9801 90.69 30.1101 89.8 28.8601C86.69 24.4601 81.89 21.3701 76.52 20.2701C74.75 19.9201 71.38 19.7601 69.72 19.9801M75.72 27.6701C77.93 28.2601 80.62 29.7401 81.94 31.1201L82.46 31.6601L79.55 33.2001C77.96 34.0501 72.56 36.9301 67.55 39.6001L58.45 44.4601L58.31 44.0401C58.23 43.8201 58.17 42.5901 58.17 41.3201C58.17 39.2401 58.2 38.8701 58.59 37.6401C60.22 32.2601 64.39 28.4801 69.83 27.4301C71.34 27.1401 74.13 27.2601 75.72 27.6601" fill="#333333"/>
<path d="M215.91 19.9802C207.69 21.0102 200.81 26.5202 198.1 34.2102C197.22 36.7202 196.94 38.4002 196.94 41.4102C196.92 44.4502 197.11 45.6202 198.02 48.3502C200.44 55.6502 206.61 61.0102 214.43 62.6502C216.27 63.0302 220.61 63.0302 222.45 62.6502C231.29 60.7802 237.72 54.4102 239.6 45.6902C240.08 43.4402 240.08 39.4002 239.6 37.1502C238.66 32.7902 236.79 29.3602 233.65 26.2202C230.47 23.0302 226.77 21.0502 222.44 20.2202C220.9 19.9302 217.4 19.8002 215.92 19.9902M221.92 27.6802C223.28 28.0302 225.3 28.9402 226.44 29.7202C227.49 30.4402 229.18 32.1102 229.96 33.1902C232.18 36.2902 233.11 40.4802 232.36 44.0502C231.73 47.1502 230.37 49.5702 228.04 51.7802C225.2 54.4602 221.59 55.7902 217.68 55.5702C214.15 55.3702 211.28 54.1202 208.69 51.6202C206.61 49.6202 205.37 47.5202 204.63 44.7402C204.2 43.0902 204.23 39.6002 204.69 37.9902C206.29 32.3902 210.46 28.5202 216.02 27.4602C217.53 27.1702 220.32 27.2902 221.91 27.6902" fill="#333333"/>
<path d="M212.47 32.3199C211.34 33.0599 209.57 34.9099 209.03 35.9299L208.64 36.6399L215.93 43.9299L223.21 51.2099L223.94 50.8199C224.9 50.3299 227.35 47.8699 227.84 46.9199L228.23 46.1899L220.98 38.9399C216.99 34.9499 213.67 31.6899 213.58 31.6899C213.49 31.6899 212.99 31.9699 212.47 32.3099" fill="#FF2727"/>
<path d="M262.54 20C258.9 20.45 254.98 22.04 252.13 24.22C250.56 25.42 248.26 27.86 247.23 29.4C245.5 31.99 244.41 34.8 243.85 37.94C243.46 40.25 243.53 43.77 244.02 45.9C245.98 54.47 252.21 60.64 260.86 62.57C262.94 63.03 266.95 63.06 269.06 62.65C270.74 62.31 272.82 61.63 274.36 60.92C275.61 60.35 278.09 58.75 279.06 57.88L279.65 57.37L277.15 54.63L274.67 51.9L274.27 52.27C273.51 52.95 271.96 53.92 270.69 54.47C267.04 56.04 262.41 55.94 258.94 54.19C255.95 52.68 253.8 50.5 252.34 47.5C251.26 45.28 250.91 43.55 251.01 40.87C251.1 38.45 251.38 37.34 252.35 35.32C253.64 32.65 255.29 30.83 257.75 29.32C262.59 26.33 268.75 26.59 273.46 29.97C274.08 30.42 274.65 30.74 274.72 30.66C274.78 30.6 275.88 29.36 277.16 27.93L279.49 25.31L278.98 24.88C276.54 22.75 272.6 20.9 269 20.21C267.41 19.9 264.1 19.79 262.52 19.99" fill="#FF2727"/>
<path d="M337.59 19.9799C327.95 21.1999 320.38 28.3799 318.78 37.8499C318.46 39.7299 318.46 43.0799 318.78 44.9699C319.06 46.6699 320 49.5799 320.71 50.9799C323.75 57.0299 329.27 61.2099 336.12 62.6399C337.94 63.0199 342.17 63.0199 343.98 62.6399C350.83 61.2099 356.35 57.0399 359.39 50.9799C360.56 48.6699 361.56 44.7399 361.56 42.4499V41.3999H354.34L354.25 41.9699C354.2 42.2899 354.13 42.9699 354.08 43.4799C353.96 44.5799 353.35 46.5699 352.82 47.6399C351.8 49.6399 349.87 51.8699 348.07 53.1199C347.04 53.8299 344.71 54.8899 343.44 55.2199C342.61 55.4399 341.82 55.4999 339.97 55.4999C337.83 55.4799 337.44 55.4499 336.19 55.0699C333.97 54.3899 331.39 52.8799 330.07 51.4799L329.64 51.0299L345.06 42.8099C354.73 37.6599 360.48 34.5099 360.48 34.3699C360.48 33.9799 359.03 31.0199 358.24 29.8199C355.03 24.8499 350.07 21.4499 344.25 20.2699C342.48 19.8999 339.22 19.7599 337.59 19.9599M343.59 27.6499C345.79 28.2199 348.54 29.7599 349.88 31.1799L350.31 31.6299L338.36 37.9999C331.79 41.4999 326.36 44.3699 326.3 44.3799C325.87 44.4399 325.76 40.2499 326.15 38.4999C327.38 32.8199 331.82 28.5099 337.55 27.4099C339.09 27.1199 342.01 27.2399 343.6 27.6399" fill="#FF2727"/>
</g>
</g>
<defs>
<clipPath id="clip0_2_1147">
<rect width="391.92" height="65" fill="white"/>
</clipPath>
</defs>
</svg>
