<svg width="67" height="65" viewBox="0 0 67 65" fill="none" xmlns="http://www.w3.org/2000/svg">
<g clip-path="url(#clip0_2_1075)">
<mask id="mask0_2_1075" style="mask-type:luminance" maskUnits="userSpaceOnUse" x="0" y="0" width="67" height="65">
<path d="M66.62 0H0V65H66.62V0Z" fill="white"/>
</mask>
<g mask="url(#mask0_2_1075)">
<mask id="mask1_2_1075" style="mask-type:luminance" maskUnits="userSpaceOnUse" x="2" y="1" width="64" height="63">
<path d="M65.2499 1.1001H2.43994V63.9101H65.2499V1.1001Z" fill="white"/>
</mask>
<g mask="url(#mask1_2_1075)">
<path d="M64.2999 40.1C60.1099 56.92 43.0699 67.16 26.2399 62.9701C9.41993 58.7701 -0.82007 41.73 3.37993 24.9101C7.56993 8.08005 24.6099 -2.15995 41.4299 2.04005C58.2499 6.23005 68.4899 23.28 64.2999 40.1Z" fill="#F7931A"/>
<path d="M47.68 28.03C48.31 23.85 45.12 21.61 40.77 20.11L42.18 14.45L38.73 13.59L37.36 19.1C36.45 18.87 35.52 18.66 34.6 18.45L35.98 12.9L32.54 12.04L31.13 17.7C30.38 17.53 29.64 17.36 28.93 17.18V17.16L24.18 15.97L23.26 19.65C23.26 19.65 25.82 20.24 25.76 20.27C27.16 20.62 27.41 21.54 27.37 22.27L25.76 28.72C25.86 28.74 25.98 28.78 26.12 28.83C26.01 28.8 25.88 28.77 25.76 28.74L23.51 37.77C23.34 38.19 22.91 38.83 21.93 38.59C21.96 38.64 19.43 37.96 19.43 37.96L17.72 41.9L22.2 43.02C23.03 43.23 23.85 43.45 24.66 43.65L23.23 49.38L26.67 50.24L28.08 44.58C29.02 44.84 29.93 45.07 30.83 45.29L29.42 50.93L32.87 51.79L34.3 46.08C40.18 47.19 44.59 46.74 46.45 41.43C47.95 37.15 46.38 34.68 43.28 33.07C45.53 32.55 47.23 31.07 47.68 28.01V28.03ZM39.81 39.07C38.75 43.35 31.54 41.04 29.21 40.46L31.1 32.88C33.44 33.46 40.93 34.62 39.81 39.08V39.07ZM40.88 27.97C39.91 31.86 33.91 29.88 31.97 29.4L33.69 22.52C35.63 23 41.9 23.91 40.89 27.97H40.88Z" fill="white"/>
</g>
</g>
</g>
<defs>
<clipPath id="clip0_2_1075">
<rect width="66.62" height="65" fill="white"/>
</clipPath>
</defs>
</svg>
