<svg width="214" height="65" viewBox="0 0 214 65" fill="none" xmlns="http://www.w3.org/2000/svg">
<path fill-rule="evenodd" clip-rule="evenodd" d="M8.81342 37.4802L9.66258 38.7867L8.02491 39.1821C6.74797 39.4922 5.46465 39.8022 4.18452 40.1059C2.89801 40.4159 1.6083 40.7164 0.318597 41.0074C-0.0804451 41.096 -0.0804453 41.2352 0.184519 41.5041C0.407983 41.735 0.625062 41.9786 0.842142 42.2222L2.55324 44.1297C8.74319 51.0228 14.9331 57.9191 21.1199 64.8185C21.2699 64.9862 21.3817 65.0368 21.6083 64.9672C22.9395 64.556 24.2739 64.1605 25.6083 63.7619L28.0664 63.0249L31.6259 61.9461L35.2652 60.8421L41.171 59.0706L45.602 57.7419C48.0249 57.027 50.4415 56.2963 52.8549 55.5465H52.8581L54.1893 55.1353L54.0712 55.0087C54.0074 54.936 53.9403 54.8632 53.8701 54.7968L53.6307 54.5785L53.6243 54.5754C51.7855 52.9019 49.9435 51.2316 48.1016 49.5645L46.2915 47.9417C45.088 46.8661 43.8845 45.7905 42.7097 44.6897C41.5062 43.5698 40.2835 42.4658 39.0481 41.3807L38.9938 41.3333L37.0784 39.625C37.1231 39.4321 37.2093 39.2517 37.3338 39.0967L37.3913 39.0145L41.0529 33.5955C45.2221 27.4205 49.3849 21.2424 53.5381 15.0579L57.0497 9.86039L59.3673 6.42491L62.3617 1.9803L63.6993 0L63.1886 0.502984C61.4998 2.2397 59.8047 3.97326 58.1095 5.70365L55.412 8.45899L48.2484 15.7981L42.0106 22.1882C38.5596 25.7249 35.1087 29.2617 31.6482 32.7857C31.5525 32.8869 31.4567 32.9913 31.3641 33.0989C31.0991 33.3994 30.831 33.6999 30.4543 33.8739L30.3394 33.8834C30.2564 33.8897 30.1734 33.8961 30.0936 33.915L29.669 34.0163C27.2396 34.5952 24.8102 35.1741 22.3841 35.7593L18.2819 36.759L16.4559 37.2082C16.1845 37.2398 15.9579 37.1228 15.7216 36.9931L15.1598 36.6894L12.2675 35.1203C10.2947 34.0511 8.31541 32.985 6.33616 31.9253C6.19889 31.8493 6.06162 31.7734 5.92754 31.6912C5.54446 31.4634 5.13903 31.2261 4.62826 31.0964L5.34015 32.172L6.83736 34.4433L8.81661 37.4802H8.81342ZM20.9475 39.7958C20.6698 39.6472 20.3888 39.4985 20.1111 39.3498C20.6762 39.122 21.2667 38.9955 21.8573 38.869C22.1638 38.8057 22.4703 38.7361 22.7735 38.657C23.661 38.4229 24.5548 38.2205 25.4487 38.0148L26.4256 37.7934C26.5054 37.7744 26.5852 37.7681 26.6682 37.7618L26.7831 37.7523L26.0074 38.5495L23.7504 40.8777C23.5684 41.0675 23.4248 41.1593 23.1375 40.9948C22.4128 40.5835 21.6849 40.1849 20.9475 39.7958ZM35.0385 42.5164C35.1598 42.3234 35.2779 42.1273 35.4663 41.9881L36.5357 42.9877C37.3146 43.7217 38.0968 44.4556 38.8917 45.1768C41.0114 47.1002 43.1375 49.0141 45.2636 50.9311L47.4471 52.8956L48.1175 53.4935L48.4814 53.813L47.2077 54.2084C46.2915 54.4931 45.404 54.7683 44.5166 55.0341L41.9212 55.8059L39.2652 56.5968C37.6626 57.0776 36.06 57.5648 34.4543 58.052L29.9754 59.4059L27.3513 60.1968C25.7743 60.6649 24.1973 61.1363 22.6267 61.6203C22.3234 61.7152 22.1606 61.6614 21.9563 61.4305L14.3011 52.9082L14.2947 52.9019L10.0712 48.2011L8.43034 46.3663C7.49179 45.3097 6.55324 44.2563 5.60192 43.2155C5.2763 42.8549 5.41677 42.7916 5.76473 42.7094C7.26513 42.3614 8.75915 42.0071 10.2564 41.6496H10.2595L10.8469 41.5104L11.1885 41.4187L11.3481 41.3744C11.8429 41.9533 12.2516 42.5986 12.6602 43.2408L13.139 43.9842C14.1319 45.4774 15.1119 46.9768 16.0888 48.4763L17.9531 51.3234C19.0321 52.9683 20.1175 54.607 21.1997 56.2456L21.2061 56.252L23.1151 59.1433C23.479 59.6938 23.5046 59.6843 23.8685 59.1433L26.3936 55.4073L29.2827 51.1304C31.1694 48.3213 33.0497 45.509 34.9268 42.6904L35.0385 42.5164Z" fill="white"/>
<path d="M155.236 47.9296C154.687 48.5623 154.078 49.1412 153.42 49.66C151.131 51.3682 148.574 51.9851 145.777 51.6656C143.639 51.422 141.621 50.8305 139.808 49.603C137.57 48.1162 135.964 45.8671 135.291 43.2825C133.969 38.3856 134.569 33.6183 136.727 29.1104C138.604 25.1814 141.701 22.5558 145.829 21.36C149.382 20.2844 153.209 20.4964 156.619 21.9547C158.789 22.869 160.434 24.4032 161.407 26.6271C161.959 27.8798 162.161 29.2085 162.237 30.5687C162.253 30.7902 162.183 30.8882 161.947 30.8851C160.449 30.8756 158.949 30.8787 157.452 30.8914C157.152 30.8914 157.139 30.7364 157.123 30.5213L157.12 30.4896C156.989 29.0028 156.475 27.6742 155.377 26.6619C154.307 25.6781 152.983 25.2131 151.581 25.0486C149.181 24.7639 146.898 25.1055 144.868 26.586C143.208 27.7976 142.039 29.4109 141.219 31.2868C139.884 34.2826 139.428 37.5915 139.904 40.834C140.274 43.3869 141.439 45.4843 143.801 46.6642C145.535 47.5278 147.38 47.6575 149.26 47.3507C152.328 46.8509 154.272 44.9212 155.52 42.131C155.824 41.4541 156.041 40.7486 156.258 40.0432L156.312 39.8724C156.433 39.4769 156.376 39.3599 155.939 39.3631C154.888 39.3725 153.838 39.3725 152.788 39.3725C151.556 39.3725 150.323 39.3725 149.094 39.3884C148.558 39.3947 148.501 39.2207 148.606 38.7557C148.829 37.7687 149.03 36.7722 149.206 35.7757C149.27 35.4183 149.484 35.4214 149.72 35.4246H159.3C159.958 35.4278 160.622 35.4309 161.279 35.4246C161.596 35.4183 161.749 35.4372 161.656 35.858C161.209 37.9617 160.778 40.0653 160.347 42.169L159.817 44.7345L159.428 46.601C159.15 47.9296 158.872 49.2551 158.611 50.5869C158.537 50.9538 158.413 51.0867 158.036 51.074C157.254 51.0456 156.469 51.0456 155.686 51.0772C155.303 51.093 155.22 50.9443 155.23 50.59C155.246 49.9953 155.243 49.4006 155.24 48.7647V48.7584L155.236 47.9296Z" fill="white"/>
<path fill-rule="evenodd" clip-rule="evenodd" d="M213.883 51.0982L212.615 51.0888C211.489 51.0761 210.365 51.0729 209.238 51.0793C208.823 51.0824 208.683 50.9685 208.622 50.5383C208.44 49.2508 208.245 47.9696 208.05 46.6853L207.61 43.7306C207.556 43.351 207.457 43.1897 207.035 43.1929C203.517 43.2118 199.996 43.2087 196.478 43.1929C196.127 43.1929 195.955 43.3226 195.792 43.6136L193.95 46.8656L191.747 50.7661C191.613 51.0097 191.46 51.0729 191.208 51.0729H191.08C187.884 51.0603 184.686 51.0635 181.49 51.0793C181.091 51.0824 180.979 50.899 180.903 50.5794C180.631 49.4153 180.702 48.2385 180.797 47.0681C180.839 46.5303 180.9 45.9925 180.957 45.4547C181.059 44.5373 181.161 43.6263 181.181 42.7089C181.203 41.8484 181.193 40.988 180.689 40.2414C180.07 39.3177 179.115 39.0235 178.113 38.9444C176.335 38.802 174.553 38.8178 172.769 38.8337C171.868 38.84 170.971 38.8495 170.071 38.8337C169.749 38.8337 169.717 39.0298 169.685 39.2291L169.669 39.3303C169.216 41.5605 168.762 43.7907 168.315 46.021L168.034 47.3812C167.814 48.46 167.594 49.5387 167.39 50.6206C167.323 50.9812 167.176 51.0793 166.837 51.0729C165.41 51.054 163.98 51.0571 162.553 51.0761C162.17 51.0824 162.132 50.9559 162.202 50.6111C163.913 42.3261 165.592 34.0316 167.24 25.7339L167.674 23.605L168.054 21.7638V21.7607C168.098 21.5392 168.127 21.3874 168.43 21.3906L173.305 21.4032C176.019 21.4032 178.729 21.4095 181.439 21.4412C183.061 21.4633 184.654 21.7449 186.141 22.4946C188.022 23.4436 189.174 24.9526 189.573 27.0404C189.966 29.103 189.819 31.1181 188.935 33.0383C188.092 34.8541 186.649 35.9518 184.836 36.5908C184.488 36.7078 184.133 36.8154 183.776 36.9071L183.211 37.0653C184.076 37.4418 184.788 37.9005 185.302 38.6154C186.036 39.6308 186.228 40.8235 186.275 42.0445C186.314 43.1043 186.196 44.1482 186.074 45.1953C186.011 45.7742 185.943 46.3563 185.905 46.9415C185.841 47.919 185.79 48.8965 185.95 49.8708L185.956 49.912C186.004 50.1903 186.052 50.4814 186.266 50.7693L186.665 50.1081C186.949 49.6399 187.227 49.1812 187.498 48.7162L191.013 42.7025C192.75 39.7289 194.489 36.7585 196.229 33.788V33.7817C198.448 30.0014 200.667 26.2211 202.853 22.4187C203.291 21.6594 203.728 21.302 204.628 21.3747C205.605 21.4475 206.592 21.4285 207.578 21.4064L208.44 21.3906C208.743 21.3874 208.855 21.4791 208.903 21.7923C209.299 24.2313 209.704 26.6703 210.116 29.1061L210.764 32.858L210.767 32.8769L211.367 36.3567C211.926 39.634 212.478 42.9145 213.027 46.1949L213.136 46.8213C213.324 47.957 213.516 49.0926 213.71 50.2283C213.726 50.3896 213.742 50.5541 213.883 50.6712V51.1014V51.0982ZM175.077 34.892H177.896C179.013 34.8857 180.114 34.7845 181.187 34.4239C183.709 33.5761 185.062 31.3237 184.615 28.6506C184.456 27.7016 183.999 26.9297 183.153 26.4299C182.074 25.7909 180.88 25.6802 179.68 25.6612C178.234 25.6422 176.791 25.6454 175.345 25.6517H173.519C172.443 25.6517 172.443 25.6517 172.229 26.7589L172.213 26.8222V26.8285L172.197 26.9139L171.83 28.7297C171.444 30.6467 171.054 32.5638 170.655 34.4776C170.582 34.8414 170.687 34.8984 171.007 34.8952C172.015 34.8857 173.024 34.8889 174.036 34.8889H175.077V34.892ZM205.203 26.6418L205.037 26.8949C204.963 27.0088 204.893 27.1258 204.826 27.2429L203.007 30.5423C201.484 33.2945 199.964 36.0467 198.435 38.7989C198.237 39.15 198.275 39.2417 198.678 39.2386C201.308 39.2259 203.936 39.2291 206.563 39.2386C206.869 39.2386 206.978 39.2069 206.92 38.8273C206.719 37.4607 206.534 36.0878 206.346 34.7149V34.6896C206.065 32.6112 205.774 30.5328 205.468 28.4576L205.465 28.4387C205.375 27.8503 205.289 27.2524 205.203 26.6418ZM134.087 33.7184C134.046 37.3563 133.497 40.5735 131.996 43.5693C130.528 46.5081 128.389 48.77 125.452 50.1998C121.781 51.9872 117.966 52.2402 114.116 51.0476C110.748 50.01 108.325 47.7798 106.965 44.4013C105.995 42.0003 105.829 39.5106 105.998 36.9578C106.24 33.3008 107.176 29.8749 109.34 26.8981C112.002 23.2443 115.587 21.2387 120.018 20.8085C122.54 20.5617 124.992 20.8559 127.303 21.9631C130.761 23.6208 132.823 26.4457 133.72 30.2038C134.017 31.4597 134.09 32.7346 134.087 33.7184ZM121.158 24.9747C120.057 24.9241 118.828 25.1962 117.647 25.7339C115.45 26.7304 113.918 28.4323 112.858 30.5803C111.172 33.9873 110.601 37.5999 111.281 41.3612C111.603 43.1486 112.405 44.7429 113.864 45.8628C116.271 47.7166 118.978 47.8969 121.752 47.0111C124.089 46.2677 125.723 44.5658 126.888 42.4178C128.781 38.9222 129.401 35.1736 128.772 31.2288C128.516 29.5965 127.875 28.1192 126.69 26.9582C125.203 25.503 123.374 24.9494 121.158 24.9747Z" fill="white"/>
<path d="M103.106 31.2946H102.496C102.005 31.2883 101.51 31.2883 101.018 31.301C100.68 31.3136 100.581 31.2061 100.571 30.8517C100.533 29.4693 100.195 28.1692 99.3262 27.0778C98.2727 25.7586 96.8362 25.1861 95.2272 25.0216C90.3493 24.5154 87.0548 27.3182 85.2959 31.3136C83.9838 34.2809 83.5273 37.5487 83.9806 40.7564C84.3158 43.2555 85.4236 45.3276 87.6742 46.555C90.0588 47.852 93.8737 47.9817 96.1977 45.916C97.5928 44.6727 98.4643 43.0942 99.007 41.3164C99.157 40.8355 99.3485 40.652 99.8657 40.6679C101.171 40.7121 102.477 40.6995 103.783 40.6742C104.191 40.6647 104.3 40.7596 104.191 41.1772C103.515 43.8155 102.426 46.226 100.498 48.1715C97.8034 50.892 94.4898 51.8853 90.7899 51.724C88.2073 51.6101 85.7715 50.9648 83.6326 49.4147C81.0245 47.5293 79.556 44.8942 78.9878 41.7276C78.5089 39.083 78.6813 36.4384 79.2017 33.819C79.7923 30.8391 80.9766 28.1439 82.9623 25.8441C84.6382 23.8827 86.8154 22.4022 89.2639 21.5576C91.9998 20.6023 94.7899 20.4947 97.6023 21.0578C99.9647 21.5323 102.046 22.5762 103.614 24.5154C105.127 26.385 105.669 28.5867 105.692 30.9688C105.695 31.2851 105.538 31.301 105.302 31.2978C104.772 31.2946 104.246 31.2915 103.716 31.2946H103.106Z" fill="white"/>
<path fill-rule="evenodd" clip-rule="evenodd" d="M67.6802 40.8206H65.6754C63.7313 40.8269 61.7871 40.8269 59.8462 40.8111C59.3865 40.8048 59.246 40.9598 59.2205 41.3995C59.1119 43.2944 59.2141 45.1418 60.2516 46.8026C61.0944 48.1471 62.2947 48.9411 63.827 49.2321C66.0489 49.656 68.0824 49.2448 69.8669 47.7928C70.9651 46.8975 71.7281 45.7365 72.2101 44.3952C72.3314 44.0536 72.4878 43.9271 72.8454 43.946C73.3721 43.9745 73.8989 43.9619 74.4288 43.9492H74.5693C74.8693 43.9397 75.0162 43.9682 74.8949 44.3573C73.7137 48.0901 71.4535 50.6841 67.5812 51.4528C65.1997 51.921 62.8342 51.8008 60.6187 50.5987C58.8151 49.618 57.5796 48.1123 57.0816 46.1288C55.7728 40.8965 56.7751 36.1229 60.2548 32.0263C62.3809 29.5208 65.1806 28.4136 68.4272 28.4927C70.2341 28.537 71.9068 28.9894 73.3434 30.1377C75.0162 31.4727 75.8494 33.2853 76.1335 35.389C76.325 36.8125 76.2389 38.2361 76.1527 39.6596L76.1112 40.3461C76.092 40.7415 75.942 40.8332 75.5685 40.8301C73.586 40.8174 71.6036 40.8206 69.6179 40.8206H67.6802ZM66.5629 38.5303L68.274 38.5271C69.8446 38.5239 71.4152 38.5208 72.9827 38.5429C73.4775 38.5492 73.6211 38.3847 73.5892 37.9102C73.5732 37.6666 73.5828 37.4199 73.5892 37.17C73.602 36.9201 73.6052 36.667 73.5924 36.4171C73.4871 34.7658 72.9763 33.2916 71.7345 32.156C69.7105 30.3054 66.084 30.3402 63.7121 32.0452C61.669 33.5131 60.4783 35.563 59.7696 37.9608C59.6355 38.4195 59.7313 38.5429 60.1973 38.5366C61.7552 38.5239 63.3163 38.5271 64.8773 38.5271L66.5629 38.5303Z" fill="#8A8A8A"/>
<path fill-rule="evenodd" clip-rule="evenodd" d="M35.4918 42.0492L9.66258 38.7877L8.02491 39.1832C6.74797 39.4932 5.46465 39.8032 4.18452 40.1069C2.89801 40.4169 1.6083 40.7174 0.318598 41.0085C-0.0804451 41.097 -0.0804453 41.2362 0.184519 41.5051C0.407983 41.736 0.625062 41.9796 0.842142 42.2232L2.55324 44.1308C8.74319 51.0239 14.9331 57.9201 21.1199 64.8195C21.2699 64.9872 21.3817 65.0378 21.6083 64.9682C22.9395 64.557 24.2739 64.1615 25.6083 63.763L28.0664 63.0259L31.6259 61.9471L35.2652 60.8431L41.171 59.0716L45.602 57.743C48.0249 57.028 50.4415 56.2973 52.855 55.5475H52.8582L54.1894 55.1363L54.0712 55.0098C54.0074 54.937 53.9404 54.8642 53.8701 54.7978L53.6307 54.5795L53.6243 54.5764C51.7855 52.9029 49.9435 51.2326 48.1016 49.5655L46.2915 47.9427C45.088 46.8671 43.8845 45.7916 42.7097 44.6907C41.5062 43.5708 40.2835 42.4668 39.0481 41.3817L38.9938 41.3343L37.072 39.6545L35.4918 42.0492ZM5.76473 42.7104C6.13504 42.625 7.7376 42.239 9.99778 41.6949C10.5309 41.5652 10.8884 41.4956 11.3322 41.3754C11.3928 41.3596 9.60193 38.7656 9.66258 38.7877C9.66577 38.7877 35.4918 42.0492 35.4918 42.0492C35.6514 42.0872 38.8374 45.1304 38.8917 45.1778C41.0114 47.1012 43.1375 49.0151 45.2636 50.9321L47.4471 52.8966L48.1175 53.4945L48.4815 53.814L47.2077 54.2094C46.2915 54.4941 45.404 54.7693 44.5166 55.0351L41.9212 55.8069L39.2652 56.5978C37.6626 57.0786 36.0601 57.5658 34.4543 58.053L29.9755 59.4069L27.3513 60.1978C25.7743 60.666 24.1973 61.1373 22.6267 61.6213C22.3234 61.7162 22.1606 61.6624 21.9563 61.4315L14.3011 52.9093L14.2947 52.9029L10.0712 48.2021L8.43034 46.3673C7.49179 45.3107 6.55324 44.2573 5.60192 43.2165C5.2763 42.8559 5.41677 42.7926 5.76473 42.7104Z" fill="#8A8A8A"/>
<path fill-rule="evenodd" clip-rule="evenodd" d="M30.4044 33.8633L16.307 37.2228L20.1091 39.4151L26.7811 37.7511L30.4044 33.8633Z" fill="#8A8A8A"/>
</svg>
