<svg width="40" height="65" viewBox="0 0 40 65" fill="none" xmlns="http://www.w3.org/2000/svg">
<g opacity="0.6">
<mask id="mask0_2_1101" style="mask-type:luminance" maskUnits="userSpaceOnUse" x="0" y="24" width="40" height="21">
<path d="M39.8985 24.0391H0V44.9041H39.8985V24.0391Z" fill="white"/>
</mask>
<g mask="url(#mask0_2_1101)">
<path d="M19.9543 24.0391L0 33.1055L19.9543 44.9041L39.8985 33.1055L19.9543 24.0391Z" fill="#010101"/>
</g>
</g>
<g opacity="0.45">
<mask id="mask1_2_1101" style="mask-type:luminance" maskUnits="userSpaceOnUse" x="0" y="0" width="20" height="45">
<path d="M19.9543 0H0V44.9024H19.9543V0Z" fill="white"/>
</mask>
<g mask="url(#mask1_2_1101)">
<path d="M0 33.1037L19.9543 44.9024V0L0 33.1037Z" fill="#010101"/>
</g>
</g>
<g opacity="0.8">
<mask id="mask2_2_1101" style="mask-type:luminance" maskUnits="userSpaceOnUse" x="19" y="0" width="21" height="45">
<path d="M39.9024 0H19.9583V44.9024H39.9024V0Z" fill="white"/>
</mask>
<g mask="url(#mask2_2_1101)">
<path d="M19.9583 0V44.8922L39.9024 33.1037L19.9583 0Z" fill="black"/>
</g>
</g>
<g opacity="0.45">
<mask id="mask3_2_1101" style="mask-type:luminance" maskUnits="userSpaceOnUse" x="0" y="36" width="20" height="30">
<path d="M19.9543 36.8911H0V65.0012H19.9543V36.8911Z" fill="white"/>
</mask>
<g mask="url(#mask3_2_1101)">
<path d="M0 36.8911L19.9543 65.0012V48.6795L0 36.8911Z" fill="black"/>
</g>
</g>
<g opacity="0.8">
<mask id="mask4_2_1101" style="mask-type:luminance" maskUnits="userSpaceOnUse" x="19" y="36" width="21" height="30">
<path d="M39.9228 36.8906H19.9583V65.0007H39.9228V36.8906Z" fill="white"/>
</mask>
<g mask="url(#mask4_2_1101)">
<path d="M19.9583 48.679V65.0007L39.9228 36.8906L19.9583 48.679Z" fill="black"/>
</g>
</g>
</svg>
