<svg width="230" height="65" viewBox="0 0 230 65" fill="none" xmlns="http://www.w3.org/2000/svg">
<g clip-path="url(#clip0_2_1011)">
<mask id="mask0_2_1011" style="mask-type:luminance" maskUnits="userSpaceOnUse" x="0" y="0" width="230" height="65">
<path d="M230 0H0V65H230V0Z" fill="white"/>
</mask>
<g mask="url(#mask0_2_1011)">
<path d="M2.06006 31.3898C2.06006 21.1798 6.51006 16.0298 13.5401 16.0298C18.4001 16.0298 22.0801 18.3998 23.1001 23.7498L23.2601 24.6098L19.0901 25.5098L18.9301 24.7398C18.1501 21.1498 16.1501 19.7598 13.4601 19.7598C9.66006 19.7598 6.64006 23.0698 6.64006 31.1098C6.64006 38.7098 9.38006 41.8898 13.2201 41.8898C15.9601 41.8898 19.1401 40.4598 19.1401 35.4398V34.5798H13.1401V31.0298H23.3101V45.1198H19.6701L19.4201 41.6498C18.0701 44.4698 15.4201 45.6098 12.3101 45.6098C6.10006 45.6098 2.06006 40.6598 2.06006 31.3898Z" fill="black"/>
<path d="M38.98 43.1499C37.71 44.4999 36.04 45.5599 33.34 45.5999C29.5 45.5999 27.01 43.0299 27.01 39.7199C27.01 36.1299 29.99 34.3699 32.61 33.6299L38.94 31.8299V31.0899C38.94 28.7999 37.51 27.6599 35.26 27.6599C33.18 27.6599 31.5 28.9699 30.77 30.4399L30.65 30.6899L27.42 28.9699L27.63 28.5599C28.53 26.7199 31.02 24.1899 35.63 24.1899C40.24 24.1899 43.19 26.5199 43.19 30.7199V41.4599C43.19 42.4799 43.23 43.8299 43.44 44.7299L43.52 45.0999H39.27L39.23 44.8899C39.11 44.3199 39.02 43.7499 38.98 43.1399V43.1499ZM34.45 42.3699C36.33 42.3699 38 41.2699 38.94 40.0799V34.9299L34.53 36.2799C32.86 36.8099 31.38 37.6699 31.38 39.4299C31.38 41.1899 32.57 42.3699 34.44 42.3699H34.45Z" fill="black"/>
<path d="M67.8502 27.8797C66.1802 27.8797 64.4202 29.0197 63.4402 29.9997V45.1097H59.1902V31.0197C59.1902 28.9397 58.1302 27.8697 56.0902 27.8697C54.4202 27.8697 52.6602 29.0097 51.6802 29.9897V45.0997H47.4302V24.6897H51.4702V26.9397C53.0202 25.3097 55.2302 24.1997 57.5102 24.1997C60.3702 24.1997 62.0802 25.5097 62.9002 27.2997C64.4502 25.4597 66.8202 24.1997 69.2702 24.1997C73.4802 24.1997 75.1902 27.0197 75.1902 30.0797V45.1097H70.9402V31.0197C70.9402 28.9397 69.8802 27.8697 67.8402 27.8697L67.8502 27.8797Z" fill="black"/>
<path d="M83.9001 43.23L83.4901 45.11H79.9001V16.52H84.1501V26.36C85.3801 24.97 87.2501 24.19 89.2101 24.19C93.8701 24.19 97.0101 27.66 97.0101 34.61C97.0101 41.56 93.7001 45.6 89.0501 45.6C86.9701 45.6 85.0501 44.74 83.9001 43.23ZM88.2301 42.17C90.6401 42.17 92.6801 39.96 92.6801 34.74C92.6801 29.52 90.5601 27.67 88.1501 27.67C86.5201 27.67 85.1701 28.49 84.1501 29.55V40.21C85.2101 41.31 86.6001 42.17 88.2301 42.17Z" fill="black"/>
<path d="M100.52 16.52H104.77V45.11H100.52V16.52Z" fill="black"/>
<path d="M108.53 35.1897C108.53 28.7397 111.76 24.1997 117.39 24.1997C121.35 24.1997 125.52 26.5697 125.52 33.9197V35.8397H112.7V36.0897C112.7 40.0497 114.78 42.2597 117.56 42.2597C119.36 42.2597 120.87 41.5197 121.89 39.6897L122.14 39.2397L125.49 40.6697L125.29 41.0797C123.78 44.0997 121.08 45.6097 117.45 45.6097C112.3 45.6097 108.55 41.9697 108.55 35.1897H108.53ZM121.52 33.0297V32.7397C121.52 29.0197 119.56 27.6297 117.4 27.6297C115.24 27.6297 113.11 29.2597 112.74 33.0197H121.52V33.0297Z" fill="black"/>
<path d="M136.79 16.52H142.96L151.05 45.11H146.52L144.52 37.6H135.05L133.05 45.11H128.76L136.81 16.52H136.79ZM143.53 34.08L139.77 20.03L136.01 34.08H143.52H143.53Z" fill="#EF681C"/>
<path d="M149.98 24.6899H154.23L157.58 39.2699L161.3 24.6899H165.3L168.94 39.2699L172.41 24.6899H176.29L171.02 45.1099H166.81L163.13 30.5699L159.41 45.1099H155.24L149.97 24.6899H149.98Z" fill="#EF681C"/>
<path d="M188.81 43.1499C187.54 44.4999 185.87 45.5599 183.17 45.5999C179.33 45.5999 176.84 43.0299 176.84 39.7199C176.84 36.1299 179.82 34.3699 182.44 33.6299L188.77 31.8299V31.0899C188.77 28.7999 187.34 27.6599 185.09 27.6599C183.01 27.6599 181.33 28.9699 180.6 30.4399L180.48 30.6899L177.25 28.9699L177.46 28.5599C178.36 26.7199 180.85 24.1899 185.46 24.1899C190.07 24.1899 193.02 26.5199 193.02 30.7199V41.4599C193.02 42.4799 193.06 43.8299 193.27 44.7299L193.35 45.0999H189.1L189.06 44.8899C188.94 44.3199 188.86 43.7499 188.81 43.1399V43.1499ZM184.28 42.3699C186.16 42.3699 187.83 41.2699 188.77 40.0799V34.9299L184.36 36.2799C182.68 36.8099 181.21 37.6699 181.21 39.4299C181.21 41.1899 182.4 42.3699 184.27 42.3699H184.28Z" fill="#EF681C"/>
<path d="M197.15 24.6899H201.11V28.5299C203.81 25.3799 206.22 24.4499 208.26 24.3999V28.3599C205.4 28.3599 203.15 29.9499 201.4 31.5499V45.1099H197.15V24.6899Z" fill="#EF681C"/>
<path d="M208.7 35.1897C208.7 28.7397 211.93 24.1997 217.56 24.1997C221.52 24.1997 225.69 26.5697 225.69 33.9197V35.8397H212.87V36.0897C212.87 40.0497 214.95 42.2597 217.73 42.2597C219.53 42.2597 221.04 41.5197 222.06 39.6897L222.31 39.2397L225.66 40.6697L225.46 41.0797C223.95 44.0997 221.25 45.6097 217.62 45.6097C212.47 45.6097 208.72 41.9697 208.72 35.1897H208.7ZM221.69 33.0297V32.7397C221.69 29.0197 219.73 27.6297 217.56 27.6297C215.39 27.6297 213.27 29.2597 212.9 33.0197H221.68L221.69 33.0297Z" fill="#EF681C"/>
</g>
</g>
<defs>
<clipPath id="clip0_2_1011">
<rect width="230" height="65" fill="white"/>
</clipPath>
</defs>
</svg>
