<svg width="230" height="65" viewBox="0 0 230 65" fill="none" xmlns="http://www.w3.org/2000/svg">
<g clip-path="url(#clip0_2_980)">
<mask id="mask0_2_980" style="mask-type:luminance" maskUnits="userSpaceOnUse" x="0" y="0" width="230" height="65">
<path d="M230 0H0V65H230V0Z" fill="white"/>
</mask>
<g mask="url(#mask0_2_980)">
<path d="M117.05 31.7898C117.02 38.2098 112.93 41.9998 106.87 41.9998C99.8399 41.9998 95.4399 36.9598 95.4399 31.3798C95.4399 25.7998 99.8999 20.7598 106.56 20.7598C110.28 20.7598 113.12 22.1098 115.82 24.6798L114.26 26.1298C111.96 23.8998 109.22 22.7198 106.59 22.7198C101.72 22.7198 97.5299 26.4398 97.5299 31.3098C97.5299 36.1798 101.45 40.0998 106.9 40.0998C110.75 40.0998 114.17 37.7998 114.74 33.7098H108.28V31.7498H117.04V31.7798L117.05 31.7898ZM121.88 34.0198C121.85 37.3298 124.45 40.0398 127.76 40.1098C131.11 40.2098 133.91 37.5698 133.98 34.2298C134.08 30.8798 131.44 28.0798 128.1 28.0098C124.75 27.9098 121.95 30.5498 121.88 33.8898V34.0298M133.61 26.5598H135.5V41.5398H133.61V38.9698C132.16 40.8298 129.92 41.9098 127.56 41.9098C123.23 41.7698 119.78 38.1598 119.92 33.8298C120.06 29.6398 123.44 26.2898 127.63 26.1898C130.03 26.1598 132.26 27.3398 133.61 29.3298V26.5598ZM151.93 41.4998H150.04V33.8298C150.04 32.6798 149.94 31.7298 149.9 31.0198C149.8 29.2598 148.28 27.9098 146.52 27.9798C145.13 27.9798 143.85 28.6198 143 29.7398C141.92 31.1298 141.75 32.8798 141.75 35.1498V41.5098H139.82V26.5298H141.75V29.0998C143.07 27.1698 144.73 26.1598 146.89 26.1598C149.19 26.1598 150.81 27.3398 151.62 29.7798C152.94 27.3798 154.93 26.1598 157.13 26.1598C160.24 26.1598 162.24 28.3898 162.24 32.6498V41.5098H160.31V33.3298C160.31 32.2098 160.17 31.3698 160.14 30.8298C160.04 29.5098 158.79 28.0198 156.76 28.0198C154.83 28.0498 153.14 29.2698 152.5 31.0598C152.06 32.3098 151.89 33.6598 151.96 34.9798L151.93 41.5098V41.4998ZM180.09 33.9898C180.12 30.6798 177.49 27.9698 174.17 27.8998C170.92 27.8298 168.25 30.4398 168.22 33.6798V33.9498C168.22 37.2298 170.86 39.8998 174.14 39.8998C177.42 39.8998 180.06 37.2598 180.09 33.9798M168.36 41.5198H166.43V20.7698H168.36V29.1198C169.78 27.2598 172.01 26.1398 174.38 26.1798C178.74 26.3198 182.16 29.9298 182.02 34.2898C181.88 38.4798 178.5 41.8598 174.31 41.9298C171.91 41.9298 169.68 40.7498 168.36 38.7898V41.5298V41.5198ZM186.82 34.0098C186.79 37.3198 189.39 40.0298 192.7 40.0998C196.05 40.1998 198.85 37.5598 198.92 34.2198C199.02 30.8698 196.38 28.0698 193.04 27.9998C189.69 27.8998 186.89 30.5398 186.82 33.8798V34.0198M198.55 26.5498H200.44V41.5298H198.55V38.9598C197.1 40.8198 194.86 41.8998 192.5 41.8998C188.17 41.7598 184.72 38.1498 184.86 33.7898C185 29.5998 188.38 26.2498 192.57 26.1498C194.97 26.1198 197.2 27.2998 198.55 29.2898V26.5498ZM206.7 29.2198C208.26 27.1898 210.11 26.1398 212.31 26.1398C215.59 26.1398 217.85 28.4098 217.85 33.0998V41.5198H215.92V33.3698C215.92 29.8498 214.8 27.8898 211.9 27.8898C210.34 27.8898 208.86 28.6298 207.94 29.9198C206.82 31.3698 206.66 32.8598 206.66 35.2298V41.5198H204.73V26.5398H206.66L206.69 29.2098L206.7 29.2198Z" fill="#132F3F"/>
<path d="M63.22 50.0099C62.81 50.4199 62.44 50.7499 62.07 51.0899L61.7 51.3899C61.4 51.6299 61.09 51.8999 60.79 52.1299L60.45 52.3999C60.04 52.6999 59.64 52.9699 59.23 53.2499L58.89 53.4499C58.55 53.6499 58.25 53.8599 57.88 54.0599L57.47 54.2999C57.06 54.4999 56.66 54.7399 56.25 54.9099L56.15 54.9799C55.68 55.1799 55.24 55.3899 54.76 55.5899L54.42 55.7299C54.05 55.8699 53.64 55.9999 53.24 56.1399L52.94 56.2399C52.47 56.3799 51.96 56.5099 51.45 56.6499C51.42 56.6499 51.38 56.6799 51.31 56.6799C50.87 56.7799 50.4 56.8799 49.96 56.9499L49.62 57.0199L48.2 57.2199H48.1L46.58 57.3199H44.65C44.14 57.3199 43.7 57.2899 43.2 57.2199L42.86 57.1899C42.29 57.1199 41.74 57.0499 41.17 56.9499L40.39 56.7799C39.95 56.6799 39.48 56.5799 39.04 56.4399L38.53 56.2999L38.26 56.1999L44.92 49.5699C54.32 49.9399 62.26 42.6099 62.6 33.2099C62.74 29.7999 61.86 26.4499 60.03 23.5399L55.84 27.7299V37.9699H48.81V23.8399L60.14 12.4499C61.19 13.2299 62.17 14.0399 63.12 14.9499C72.89 24.6199 72.89 40.3099 63.22 50.0099ZM27.96 50.0799C18.29 40.3799 18.29 24.6899 27.96 15.0199L27.99 14.9899C28.36 14.6199 28.73 14.2799 29.11 13.9399L29.48 13.6399C29.78 13.3999 30.09 13.1299 30.36 12.8999L30.7 12.6299C31.11 12.3299 31.51 12.0599 31.92 11.7799L32.26 11.5799C32.6 11.3799 32.9 11.1699 33.27 10.9699L33.68 10.7299C34.09 10.5299 34.49 10.2899 34.9 10.1199L35 10.0499C35.47 9.84994 35.91 9.63994 36.39 9.43994L36.73 9.29994C37.1 9.15994 37.51 9.02994 37.91 8.88994L38.21 8.78994C38.68 8.64994 39.19 8.51994 39.7 8.37994H39.84C40.28 8.27994 40.75 8.17994 41.19 8.10994L41.53 8.03994L42.95 7.83994H43.05L44.57 7.73994H46.5C47.01 7.73994 47.45 7.76994 47.95 7.83994L48.29 7.86994C48.66 7.89994 49 7.96994 49.37 8.00994L49.98 8.10994C50.25 8.13994 50.49 8.20994 50.76 8.27994C51.2 8.37994 51.67 8.47994 52.11 8.61994L52.62 8.75994L52.89 8.85994L46.23 15.4899C36.83 15.1199 28.89 22.4199 28.51 31.8499C28.34 35.2999 29.22 38.6799 31.05 41.5499L35.24 37.3599V27.1199H42.27V41.2499L30.94 52.6399C29.89 51.8599 28.88 51.0199 27.96 50.0699M45.57 1.93994C28.67 1.93994 15.01 15.6299 15.01 32.4999C15.01 49.3699 28.7 63.0599 45.57 63.0599C62.44 63.0599 76.13 49.3699 76.13 32.4999C76.16 15.6299 62.47 1.93994 45.57 1.93994Z" fill="#DD6048"/>
</g>
</g>
<defs>
<clipPath id="clip0_2_980">
<rect width="230" height="65" fill="white"/>
</clipPath>
</defs>
</svg>
