<svg width="230" height="65" viewBox="0 0 230 65" fill="none" xmlns="http://www.w3.org/2000/svg">
<g clip-path="url(#clip0_2_1233)">
<mask id="mask0_2_1233" style="mask-type:luminance" maskUnits="userSpaceOnUse" x="5" y="1" width="220" height="63">
<path d="M224.57 1.18994H5.42993V63.7999H224.57V1.18994Z" fill="white"/>
</mask>
<g mask="url(#mask0_2_1233)">
<path d="M89.39 17.2098C89.3 17.3998 89.14 17.5398 88.94 17.5898L84.79 18.8198C84.28 18.9698 84.02 18.8198 83.81 18.3098C83.32 16.2298 81.36 14.8298 79.23 15.0398C75.33 15.0398 73.99 17.3498 73.99 20.4698V27.6298C73.99 30.7398 75.31 33.0598 79.23 33.0598C82.46 33.0598 84.11 31.5598 84.11 28.2898V27.3098H79.89C79.59 27.3298 79.33 27.1198 79.31 26.8198C79.31 26.7798 79.31 26.7398 79.31 26.6898V22.8098C79.27 22.5098 79.48 22.2398 79.78 22.1998C79.81 22.1998 79.85 22.1998 79.88 22.1998H89.27C89.56 22.1598 89.84 22.3598 89.88 22.6498C89.88 22.6898 89.88 22.7298 89.88 22.7798V28.6998C89.88 34.3598 85.72 38.6298 79.26 38.6298C71.6 38.6298 68.02 34.0898 68.02 27.8898V20.3198C68.02 14.0798 71.6 9.57982 79.26 9.57982C85.46 9.57982 88.26 13.1098 89.38 16.6598M110.46 23.6998V37.5898C110.48 37.8898 110.25 38.1498 109.94 38.1698C109.92 38.1698 109.9 38.1698 109.88 38.1698H105.64C105.33 38.1998 105.06 37.9798 105.03 37.6798C105.03 37.6498 105.03 37.6298 105.03 37.5998V35.3298C103.81 37.3898 101.57 38.6398 99.17 38.5998C95.17 38.5998 92.58 36.0198 92.58 32.0598C92.58 28.0998 95.01 25.8998 100.93 25.4798C102.21 25.3798 103.5 25.3798 104.78 25.4798V23.8998C104.78 21.8198 103.7 20.9698 101.85 20.9698C100.52 20.7798 99.26 21.6198 98.92 22.9298C98.72 23.3898 98.58 23.4698 98.15 23.3498L93.91 22.2698C93.49 22.1498 93.45 21.9198 93.53 21.6198C94.11 18.5698 97 16.3398 102.07 16.3398C107.42 16.3398 110.42 18.8798 110.42 23.6598M104.76 30.9298V28.9898C103.63 28.9498 102.5 28.9898 101.37 29.1098C99.22 29.3698 98.06 30.0298 98.06 31.6898C98.06 33.1798 99.04 33.9898 100.72 33.9898C102.59 34.0298 104.25 32.7998 104.76 30.9898M125.73 16.3998C128.17 16.3598 130.33 17.9598 131 20.2998C132.58 17.9898 134.5 16.3998 137.2 16.3998C140.93 16.3998 143.06 19.3298 143.06 23.7898V37.6198C143.04 37.9598 142.74 38.2198 142.39 38.1998H137.95C137.61 38.2398 137.3 37.9898 137.26 37.6498V24.8098C137.26 22.8498 136.41 21.7298 134.91 21.7298C133.41 21.7298 132.18 23.0498 131.6 25.0498V37.6298C131.62 37.9298 131.4 38.1798 131.1 38.1998C131.09 38.1998 131.07 38.1998 131.06 38.1998H126.27C125.93 38.1998 125.77 37.9698 125.77 37.6198V24.7998C125.77 22.8398 124.92 21.7198 123.42 21.7198C121.92 21.7198 120.65 23.1098 120.11 25.0798V37.6198C120.14 37.9098 119.93 38.1698 119.64 38.1998C119.61 38.1998 119.57 38.1998 119.54 38.1998H114.84C114.55 38.2298 114.29 38.0198 114.26 37.7298C114.26 37.6998 114.26 37.6598 114.26 37.6298V17.3898C114.26 17.0898 114.5 16.8498 114.8 16.8498C114.81 16.8498 114.83 16.8498 114.84 16.8498H119.34C119.63 16.8198 119.89 17.0398 119.91 17.3298C119.91 17.3498 119.91 17.3698 119.91 17.3898V19.8098C121.17 17.7598 123.37 16.4798 125.77 16.3898M167.26 16.8598C167.38 17.3598 167.26 17.7398 166.76 17.8398L162.68 19.0298C162.36 19.1798 161.97 19.0498 161.82 18.7298C161.79 18.6698 161.77 18.5998 161.76 18.5298C161.17 16.5698 160.18 15.0598 157.33 15.0598C153.83 15.0598 152.71 17.3698 152.71 20.4898V27.6498C152.71 30.7598 153.98 33.0798 157.33 33.0798C160.34 33.0798 161.49 31.3798 161.95 29.2598C161.98 28.9098 162.29 28.6598 162.64 28.6898C162.72 28.6898 162.8 28.7198 162.87 28.7598L166.96 30.0898C167.36 30.2098 167.59 30.6198 167.47 31.0198C167.47 31.0398 167.47 31.0498 167.45 31.0698C166.47 35.2298 163.49 38.5998 157.25 38.5998C150.25 38.5998 146.71 34.0598 146.71 27.8598V20.3098C146.71 14.0698 150.32 9.56982 157.25 9.56982C163.33 9.56982 166.18 12.7998 167.25 16.8798M187.72 23.6998V37.5898C187.74 37.8898 187.51 38.1498 187.2 38.1698C187.18 38.1698 187.16 38.1698 187.14 38.1698H182.9C182.59 38.1998 182.32 37.9798 182.29 37.6798C182.29 37.6498 182.29 37.6298 182.29 37.5998V35.3198C181.07 37.3798 178.83 38.6298 176.43 38.5898C172.43 38.5898 169.85 36.0098 169.85 32.0498C169.85 28.0898 172.27 25.8898 178.19 25.4698C179.47 25.3698 180.76 25.3698 182.05 25.4698V23.8898C182.05 21.8098 180.97 20.9598 179.12 20.9598C177.79 20.7798 176.54 21.6198 176.19 22.9198C176 23.3798 175.85 23.4598 175.42 23.3398L171.19 22.2598C170.76 22.1398 170.72 21.9098 170.8 21.6098C171.38 18.5598 174.27 16.3298 179.35 16.3298C184.7 16.3298 187.69 18.8698 187.69 23.6498M182.04 30.9198V28.9798C180.91 28.9398 179.78 28.9798 178.65 29.0998C176.5 29.3598 175.34 30.0198 175.34 31.6798C175.34 33.1698 176.32 33.9798 178 33.9798C179.87 34.0198 181.53 32.7798 182.04 30.9798M204.19 17.2398V21.3598C204.19 21.8598 203.99 22.0498 203.5 22.0498H202.88C199.81 22.0498 198 23.4398 197.38 25.7498V37.5998C197.4 37.8998 197.18 38.1498 196.88 38.1798H191.99C191.69 38.1698 191.47 37.9098 191.48 37.6198V17.3898C191.47 17.0998 191.69 16.8598 191.97 16.8498C192 16.8498 192.02 16.8498 192.05 16.8498H196.44C196.9 16.8498 197.02 17.1498 197.02 17.4698V20.3198C198.17 17.9398 200.62 16.4698 203.26 16.5498C204.03 16.5498 204.24 16.6698 204.24 17.1998M211.75 29.2298V30.0398C211.75 32.2798 212.91 33.8498 215.65 33.8498C218.39 33.8498 219.04 32.8698 219.73 31.5898C220.07 31.0098 220.23 30.9398 220.84 31.1998L223.87 32.7398C224.5 33.0498 224.53 33.3598 224.26 33.9298C222.95 36.8598 219.68 38.5898 215.6 38.5898C209.44 38.5898 206.21 34.9398 206.21 29.9298V25.0498C206.21 20.1698 209.24 16.3798 215.56 16.3798C221.88 16.3798 224.49 20.1998 224.49 24.9298V28.3198C224.49 28.8998 224.29 29.2998 223.51 29.2998L211.74 29.2398L211.75 29.2298ZM211.75 24.7298V25.4598H219.18V24.7298C219.35 22.8598 217.98 21.2098 216.11 21.0298C215.9 21.0098 215.69 21.0098 215.49 21.0298C213.6 20.8598 211.93 22.2498 211.76 24.1398C211.74 24.3398 211.74 24.5298 211.76 24.7298" fill="white"/>
<path d="M32.0499 1.18994H6.21993C5.78993 1.18994 5.42993 1.52994 5.42993 1.95994V39.5299C5.42993 52.9299 16.2999 63.7899 29.6999 63.7899H32.0399C45.4399 63.7899 56.2999 52.9299 56.2999 39.5299V25.4499C56.2999 12.0499 45.4399 1.18994 32.0399 1.18994M48.5099 39.9399C48.5099 49.0799 41.7999 55.9799 31.3599 55.9799C18.9899 55.9799 13.2199 48.6399 13.2199 38.6299V26.3999C13.2199 16.3199 18.9999 8.99994 31.3499 8.99994C41.3499 8.99994 45.8899 14.7199 47.6999 20.4399C47.9699 21.0199 47.7099 21.7099 47.1299 21.9799C47.0799 21.9999 47.0199 22.0199 46.9699 22.0399L40.2499 23.9999C39.4499 24.2399 39.0099 23.9999 38.7699 23.1899C37.7099 19.7699 35.4699 17.9099 31.3699 17.9099C25.0299 17.9099 22.9199 21.6399 22.9199 26.6899V38.2699C22.9199 43.3099 25.0299 47.0499 31.3699 47.0499C36.5899 47.0499 39.3199 44.6199 39.3199 39.3399V37.8299H32.3199C31.8399 37.8899 31.4099 37.5599 31.3399 37.0899C31.3299 37.0099 31.3299 36.9299 31.3399 36.8499V30.4399C31.2999 29.9399 31.6699 29.4999 32.1699 29.4599C32.2199 29.4599 32.2699 29.4599 32.3199 29.4599H47.5199C47.9999 29.3999 48.4299 29.7299 48.4899 30.2099C48.4899 30.2699 48.4899 30.3299 48.4899 30.3899L48.5099 39.9499V39.9399Z" fill="#8A8A8A"/>
<path d="M73.7699 46.4699C73.8099 46.5399 73.7899 46.6299 73.7199 46.6699C73.7099 46.6699 73.6999 46.6799 73.6899 46.6799L73.0099 46.8899C72.8999 46.8899 72.8399 46.8899 72.7999 46.7999C72.5999 46.0199 71.8599 45.4899 71.0499 45.5599C70.0999 45.4299 69.2199 46.0999 69.0899 47.0499C69.0699 47.2099 69.0699 47.3599 69.0899 47.5199V50.1099C68.9599 51.0599 69.6299 51.9399 70.5799 52.0699C70.7399 52.0899 70.8899 52.0899 71.0499 52.0699C72.1499 52.0699 72.8799 51.5599 72.8799 50.4199V49.4399H71.2799C71.1899 49.4399 71.1399 49.4399 71.1399 49.2899V48.7499C71.1399 48.6499 71.1399 48.5999 71.2799 48.5999H73.7599C73.8299 48.5899 73.8999 48.6399 73.9199 48.7199C73.9199 48.7299 73.9199 48.7399 73.9199 48.7499V50.5499C73.9299 51.9799 72.7899 53.1499 71.3599 53.1599C71.2599 53.1599 71.1599 53.1599 71.0599 53.1499C69.5799 53.3199 68.2399 52.2699 68.0699 50.7899C68.0499 50.5999 68.0499 50.4099 68.0699 50.2199V47.4799C67.9299 45.9999 69.0199 44.6799 70.4999 44.5499C70.6899 44.5299 70.8799 44.5299 71.0699 44.5499C72.3199 44.4499 73.4599 45.2399 73.7999 46.4399M79.0699 51.1099V50.1299C78.6099 50.0999 78.1499 50.0999 77.6799 50.1299C76.8199 50.2299 76.2999 50.5299 76.2999 51.2399C76.2599 51.7799 76.6599 52.2499 77.1999 52.2899C77.2799 52.2899 77.3699 52.2899 77.4499 52.2799C78.1799 52.2799 78.8199 51.8099 79.0599 51.1099M80.0399 48.6099V52.8799C80.0399 52.9699 80.0399 53.0099 79.8899 53.0099H79.2099C79.1099 53.0099 79.0599 53.0099 79.0599 52.8799V52.0699C78.6799 52.7199 77.9799 53.1099 77.2299 53.1099C76.2499 53.2099 75.3799 52.4999 75.2799 51.5199C75.2799 51.4399 75.2699 51.3599 75.2799 51.2799C75.2799 50.1399 76.0499 49.5099 77.5499 49.3999C78.0399 49.3699 78.5299 49.3699 79.0199 49.3999V48.6799C79.0199 47.8599 78.5399 47.5199 77.7699 47.5199C77.1999 47.4299 76.6499 47.7799 76.5099 48.3399C76.5099 48.4499 76.4299 48.4599 76.3099 48.4399L75.6499 48.2499C75.5399 48.2499 75.5099 48.1699 75.5399 48.0799C75.7399 47.2199 76.5199 46.6599 77.7899 46.6599C79.0599 46.6599 80.0199 47.2899 80.0199 48.6199M84.5099 46.6499C85.2099 46.6399 85.8199 47.0999 85.9999 47.7699C86.3699 47.0999 87.0599 46.6799 87.8199 46.6499C88.7499 46.6499 89.4999 47.4199 89.4899 48.3499C89.4899 48.4199 89.4899 48.4799 89.4799 48.5499V52.8499C89.4799 52.9499 89.4199 52.9899 89.3199 52.9899H88.6499C88.5399 52.9899 88.4899 52.9899 88.4899 52.8499V48.7399C88.4899 47.9799 88.1499 47.5699 87.5099 47.5699C86.8599 47.6399 86.3199 48.1099 86.1499 48.7399V52.8699C86.1499 52.9699 86.1499 53.0099 86.0099 53.0099H85.2599C85.1499 53.0099 85.1199 53.0099 85.1199 52.8699V48.7399C85.1199 47.9799 84.7899 47.5699 84.1399 47.5699C83.4999 47.6599 82.9699 48.1199 82.7799 48.7399V52.8199C82.7799 52.9199 82.7799 52.9599 82.6399 52.9599H81.8999C81.7899 52.9599 81.7599 52.9599 81.7599 52.8199V46.8899C81.7599 46.8099 81.7599 46.7599 81.8999 46.7599H82.6199C82.7299 46.7599 82.7599 46.8099 82.7599 46.8899V47.7099C83.1199 47.0799 83.7699 46.6799 84.4999 46.6499M92.2499 49.1799V50.6199C92.1899 51.4299 92.8099 52.1299 93.6199 52.1899C93.6799 52.1899 93.7399 52.1899 93.7999 52.1899C94.6999 52.1899 95.2399 51.6599 95.2399 50.6199V49.1699C95.2399 48.1299 94.6999 47.5799 93.7999 47.5799C92.9799 47.5599 92.2899 48.2099 92.2699 49.0399C92.2699 49.0899 92.2699 49.1299 92.2699 49.1799M92.2699 44.5099V47.6199C92.6599 46.9899 93.3599 46.6099 94.1099 46.6399C95.2899 46.6199 96.2499 47.5599 96.2699 48.7299C96.2699 48.8199 96.2699 48.9199 96.2599 49.0099V50.7399C96.3899 51.9099 95.5499 52.9599 94.3799 53.0899C94.2799 53.0999 94.1799 53.1099 94.0699 53.0999C93.3299 53.1199 92.6399 52.7499 92.2499 52.1199V52.8399C92.2499 52.9299 92.1799 52.9599 92.1099 52.9599H91.3899C91.2999 52.9599 91.2499 52.9599 91.2499 52.8399V44.4999C91.2499 44.4399 91.2899 44.3799 91.3599 44.3699C91.3599 44.3699 91.3699 44.3699 91.3799 44.3699H92.1499C92.2399 44.3699 92.2699 44.3699 92.2699 44.4999M98.8699 44.4999V52.8399C98.8699 52.9399 98.8699 52.9799 98.7299 52.9799H97.9899C97.8699 52.9799 97.8399 52.9799 97.8399 52.8399V44.4999C97.8399 44.4099 97.8399 44.3599 97.9899 44.3599H98.7299C98.7899 44.3499 98.8599 44.3899 98.8699 44.4499C98.8699 44.4599 98.8699 44.4799 98.8699 44.4899M101.61 46.8799V52.8499C101.61 52.9399 101.61 52.9799 101.48 52.9799H100.74C100.62 52.9799 100.59 52.9799 100.59 52.8499V46.8799C100.59 46.7899 100.59 46.7499 100.74 46.7499H101.48C101.58 46.7499 101.61 46.7499 101.61 46.8799ZM101.61 44.5299V45.6199C101.61 45.7299 101.61 45.7899 101.44 45.7899H100.76C100.68 45.7999 100.61 45.7499 100.59 45.6699C100.59 45.6599 100.59 45.6399 100.59 45.6299V44.5399C100.58 44.4599 100.63 44.3899 100.71 44.3699C100.72 44.3699 100.74 44.3699 100.75 44.3699H101.43C101.56 44.3699 101.6 44.4299 101.6 44.5399M104.38 48.7899V52.8599C104.38 52.9499 104.38 52.9899 104.25 52.9899H103.55C103.43 52.9899 103.4 52.9899 103.4 52.8599V46.8899C103.4 46.8099 103.4 46.7599 103.54 46.7599H104.26C104.37 46.7599 104.4 46.8099 104.4 46.8899V47.7099C104.83 47.0499 105.57 46.6499 106.36 46.6499C107.35 46.6199 108.18 47.4099 108.2 48.3999C108.2 48.4999 108.2 48.6099 108.18 48.7099V52.8699C108.18 52.9599 108.18 52.9999 108.03 52.9999H107.29C107.19 52.9999 107.14 52.9999 107.14 52.8699V48.8699C107.14 48.0699 106.78 47.5999 106 47.5999C105.28 47.6399 104.66 48.1199 104.43 48.7999M110.58 48.8999C110.52 49.5899 111.03 50.1899 111.72 50.2499C111.81 50.2499 111.89 50.2499 111.98 50.2499C112.63 50.3399 113.23 49.8799 113.32 49.2199C113.33 49.1199 113.33 49.0299 113.32 48.9299C113.37 48.1799 112.81 47.5199 112.05 47.4699C111.29 47.4199 110.64 47.9799 110.59 48.7399C110.59 48.7999 110.59 48.8699 110.59 48.9299M113.86 53.6199C113.86 53.1699 113.61 52.7499 112.69 52.7499H111.55C110.69 52.7499 110.43 53.1899 110.43 53.6399C110.43 54.2599 110.92 54.6799 112.12 54.6799C113.32 54.6799 113.87 54.2499 113.87 53.6299M114.85 53.5599C114.85 54.5399 114.09 55.4199 112.07 55.4199C110.21 55.4199 109.47 54.7199 109.47 53.7399C109.47 53.1299 109.87 52.5899 110.45 52.3899C110.19 52.2099 110.03 51.9199 110.01 51.5999C110.02 51.2099 110.27 50.8599 110.64 50.7199C110.01 50.3599 109.63 49.6699 109.66 48.9399C109.6 47.8099 110.48 46.8399 111.61 46.7899C111.73 46.7899 111.86 46.7899 111.98 46.8099H114.7C114.78 46.8099 114.82 46.8599 114.82 46.9499V47.5099C114.82 47.6199 114.76 47.6599 114.68 47.6599H113.6C114.03 48.0099 114.26 48.5399 114.23 49.0999C114.23 50.2499 113.46 51.0599 111.98 51.0599H111.47C111.04 51.0599 110.85 51.2599 110.85 51.4899C110.85 51.7199 111.05 51.9199 111.47 51.9199H112.81C114.28 51.9199 114.85 52.6499 114.85 53.5599ZM124.16 46.3399C124.19 46.3999 124.16 46.4799 124.11 46.5099C124.09 46.5099 124.08 46.5199 124.06 46.5199L123.43 46.7599C123.35 46.7899 123.26 46.7599 123.23 46.6699C123.01 45.9699 122.34 45.5199 121.62 45.5699C120.64 45.5699 120.09 46.0299 120.09 46.7799C120.09 47.5299 120.5 47.7599 122.05 48.3799C123.6 48.9999 124.26 49.6699 124.26 50.8299C124.23 52.1599 123.12 53.1999 121.8 53.1699C121.73 53.1699 121.65 53.1699 121.58 53.1499C120.33 53.2799 119.17 52.4699 118.85 51.2599C118.85 51.1399 118.85 51.0899 118.95 51.0599L119.61 50.8499C119.74 50.8499 119.79 50.8499 119.82 50.9699C120.02 51.7699 120.77 52.2899 121.59 52.1999C122.57 52.1999 123.2 51.7099 123.2 50.9199C123.2 50.1299 122.83 49.8399 121.41 49.2999C119.71 48.6299 119.07 47.9599 119.07 46.8099C119.12 45.5399 120.19 44.5499 121.46 44.5999C121.53 44.5999 121.59 44.5999 121.66 44.6199C122.81 44.5399 123.87 45.2499 124.23 46.3499M125.78 51.1199V46.9499C125.78 46.8599 125.83 46.8099 125.93 46.8099H126.67C126.77 46.8099 126.82 46.8599 126.82 46.9499V50.9399C126.82 51.7499 127.18 52.2199 127.95 52.2199C128.67 52.1799 129.3 51.6999 129.52 51.0099V46.9499C129.52 46.8599 129.52 46.8099 129.67 46.8099H130.4C130.52 46.8099 130.55 46.8599 130.55 46.9499V52.9099C130.55 52.9999 130.55 53.0499 130.41 53.0499H129.69C129.63 53.0599 129.56 53.0199 129.55 52.9599C129.55 52.9499 129.55 52.9299 129.55 52.9199V52.1099C129.12 52.7799 128.39 53.1799 127.59 53.1899C126.59 53.2099 125.77 52.4199 125.75 51.4199C125.75 51.3199 125.75 51.2299 125.77 51.1299M136.27 50.6799V49.1899C136.39 48.4499 135.88 47.7499 135.14 47.6399C135.04 47.6199 134.94 47.6199 134.83 47.6299C134.02 47.6099 133.34 48.2499 133.31 49.0599C133.31 49.1099 133.31 49.1499 133.31 49.1999V50.6699C133.25 51.4899 133.86 52.1999 134.68 52.2599C134.73 52.2599 134.78 52.2599 134.83 52.2599C135.73 52.2599 136.27 51.7099 136.27 50.6799ZM132.42 55.3399C132.36 55.3399 132.3 55.2999 132.29 55.2299C132.29 55.2299 132.29 55.2199 132.29 55.2099V46.9599C132.29 46.8699 132.34 46.8299 132.43 46.8299H133.15C133.21 46.8199 133.27 46.8599 133.29 46.9299C133.29 46.9399 133.29 46.9499 133.29 46.9599V47.6599C133.68 47.0399 134.37 46.6699 135.11 46.6799C136.28 46.6399 137.27 47.5599 137.31 48.7399C137.31 48.8399 137.31 48.9299 137.3 49.0299V50.7799C137.43 51.9499 136.58 53.0099 135.41 53.1399C135.32 53.1399 135.24 53.1499 135.15 53.1499C134.41 53.1899 133.71 52.8099 133.32 52.1699V55.1599C133.32 55.2199 133.28 55.2799 133.21 55.2899C133.21 55.2899 133.2 55.2899 133.19 55.2899L132.42 55.3399ZM142.87 50.6899V49.1999C142.99 48.4599 142.48 47.7599 141.74 47.6499C141.64 47.6299 141.54 47.6299 141.43 47.6399C140.62 47.6199 139.94 48.2599 139.91 49.0699C139.91 49.1199 139.91 49.1599 139.91 49.2099V50.6799C139.85 51.4999 140.46 52.2099 141.28 52.2699C141.33 52.2699 141.37 52.2699 141.42 52.2699C142.32 52.2699 142.86 51.7199 142.86 50.6899M139.01 55.3499C138.95 55.3499 138.89 55.3099 138.88 55.2399C138.88 55.2399 138.88 55.2299 138.88 55.2199V46.9699C138.88 46.8799 138.93 46.8399 139.02 46.8399H139.74C139.8 46.8299 139.86 46.8699 139.88 46.9399C139.88 46.9499 139.88 46.9599 139.88 46.9699V47.6699C140.27 47.0499 140.96 46.6799 141.7 46.6899C142.87 46.6499 143.86 47.5599 143.91 48.7399C143.91 48.8399 143.91 48.9399 143.9 49.0399V50.7899C144.03 51.9599 143.18 53.0199 142.01 53.1499C141.92 53.1499 141.84 53.1599 141.75 53.1599C141.01 53.1899 140.31 52.8199 139.92 52.1799V55.1699C139.92 55.2299 139.88 55.2899 139.81 55.2999C139.81 55.2999 139.8 55.2999 139.79 55.2999L139.01 55.3499ZM146.37 49.1999V50.7799C146.37 51.5999 147.04 52.2699 147.86 52.2699C148.68 52.2699 149.35 51.5999 149.35 50.7799V49.1999C149.35 48.3799 148.68 47.7099 147.86 47.7099C147.04 47.7099 146.37 48.3799 146.37 49.1999ZM150.38 49.1499V50.7799C150.38 52.1699 149.25 53.2999 147.86 53.2899C146.47 53.2899 145.35 52.1599 145.35 50.7799V49.1799C145.35 47.7899 146.48 46.6599 147.87 46.6699C149.26 46.6699 150.38 47.7999 150.38 49.1799M155.06 46.8799V47.5699C155.06 47.6799 155.06 47.7199 154.9 47.7199H154.77C153.97 47.6899 153.24 48.1999 152.99 48.9599V52.9299C152.99 53.0199 152.93 53.0499 152.86 53.0499H152.09C152.03 53.0499 151.98 53.0099 151.97 52.9499C151.97 52.9499 151.97 52.9399 151.97 52.9299V46.9899C151.97 46.8899 151.97 46.8599 152.11 46.8599H152.81C152.91 46.8599 152.96 46.9099 152.96 46.9999V47.9799C153.33 47.2399 154.09 46.7899 154.92 46.8199C155.07 46.8199 155.11 46.8199 155.11 46.9699M158.04 45.3999V46.8899H159.37C159.47 46.8899 159.51 46.9399 159.51 47.0499V47.6099C159.51 47.7199 159.51 47.7599 159.37 47.7599H158.04V51.3599C158.04 51.9199 158.34 52.1699 158.91 52.1699H159.36C159.46 52.1699 159.51 52.1699 159.51 52.3099V52.9399C159.51 53.0499 159.51 53.0899 159.36 53.0899H158.76C157.93 53.2099 157.17 52.6399 157.05 51.8099C157.04 51.7099 157.03 51.6099 157.04 51.5099V47.7699H156.19C156.11 47.7699 156.06 47.7699 156.06 47.6199V47.0599C156.06 46.9499 156.11 46.8999 156.19 46.8999H157.05V45.3999C157.05 45.3199 157.05 45.2699 157.2 45.2699H157.9C158.02 45.2699 158.05 45.2699 158.05 45.3999M169.23 46.4599C169.23 46.5799 169.23 46.6699 169.06 46.7099L167.97 47.1099C167.87 47.1599 167.75 47.1199 167.69 47.0199C167.69 47.0099 167.68 46.9899 167.67 46.9799C167.48 46.4699 166.97 46.1499 166.43 46.2099C165.76 46.2099 165.32 46.5299 165.32 47.0199C165.32 47.5099 165.66 47.7099 167.18 48.2399C168.7 48.7699 169.31 49.4899 169.31 50.6899C169.31 52.1299 168.08 53.2199 166.3 53.2199C164.94 53.3799 163.67 52.5299 163.31 51.2099C163.27 51.1099 163.33 50.9999 163.43 50.9599L164.61 50.5699C164.77 50.5199 164.84 50.5699 164.88 50.7299C165.01 51.3699 165.63 51.7999 166.28 51.7099C167.08 51.7099 167.5 51.3699 167.5 50.8599C167.5 50.3499 167.2 50.1799 165.97 49.7499C164.2 49.1199 163.53 48.4099 163.53 47.1099C163.64 45.6699 164.89 44.5999 166.32 44.6999C166.34 44.6999 166.37 44.6999 166.39 44.6999C167.64 44.5799 168.81 45.3199 169.22 46.5099M172.73 45.4899V46.8999H173.9C173.99 46.8899 174.07 46.9499 174.09 47.0399C174.09 47.0499 174.09 47.0699 174.09 47.0799V48.1099C174.09 48.1999 174.03 48.2799 173.94 48.2899C173.93 48.2899 173.92 48.2899 173.91 48.2899H172.74V51.0699C172.74 51.4299 172.94 51.6399 173.4 51.6399H173.91C174.03 51.6399 174.1 51.6999 174.1 51.8099V52.9699C174.1 53.0899 174.03 53.1399 173.91 53.1399H173.12C171.71 53.1399 171.05 52.3999 171.05 51.2999V48.2699H170.33C170.24 48.2799 170.16 48.2199 170.14 48.1199C170.14 48.1099 170.14 48.0999 170.14 48.0899V47.0599C170.13 46.9699 170.19 46.8899 170.28 46.8699C170.29 46.8699 170.31 46.8699 170.32 46.8699H171.07V45.4899C171.06 45.3999 171.12 45.3299 171.21 45.3099C171.22 45.3099 171.23 45.3099 171.24 45.3099H172.57C172.68 45.3099 172.73 45.3799 172.73 45.4899ZM178.61 50.9799V50.3899C178.28 50.3699 177.96 50.3699 177.63 50.3899C177 50.4699 176.65 50.6599 176.65 51.1499C176.65 51.6399 176.94 51.8299 177.43 51.8299C177.98 51.8299 178.47 51.4699 178.62 50.9399M180.29 48.7899V52.8899C180.29 52.9799 180.22 53.0599 180.12 53.0599H178.86C178.77 53.0599 178.69 52.9999 178.68 52.8999V52.2199C178.32 52.8399 177.66 53.2099 176.95 53.1999C175.95 53.2799 175.07 52.5399 174.99 51.5399C174.99 51.4399 174.99 51.3399 174.99 51.2499C174.99 50.1099 175.71 49.4299 177.46 49.2899C177.84 49.2599 178.22 49.2599 178.59 49.2899V48.8499C178.65 48.4399 178.36 48.0599 177.95 47.9999C177.88 47.9899 177.8 47.9899 177.73 47.9999C177.34 47.9499 176.97 48.1899 176.86 48.5799C176.8 48.7199 176.76 48.7499 176.64 48.7099L175.39 48.3999C175.26 48.3999 175.25 48.2899 175.28 48.1999C175.45 47.2999 176.26 46.6499 177.79 46.6499C179.32 46.6499 180.26 47.3899 180.26 48.7999M185.35 46.9099V48.1299C185.35 48.2799 185.29 48.3299 185.15 48.3299H184.96C184.22 48.2399 183.53 48.6999 183.34 49.4199V52.9099C183.35 52.9899 183.29 53.0599 183.21 53.0799C183.21 53.0799 183.2 53.0799 183.19 53.0799H181.76C181.68 53.0799 181.61 53.0199 181.61 52.9299C181.61 52.9299 181.61 52.9199 181.61 52.9099V46.9599C181.61 46.8799 181.66 46.8099 181.75 46.7999C181.76 46.7999 181.77 46.7999 181.78 46.7999H183.08C183.17 46.7999 183.24 46.8599 183.25 46.9499C183.25 46.9599 183.25 46.9699 183.25 46.9799V47.8899C183.59 47.1899 184.3 46.7599 185.08 46.7899C185.3 46.7899 185.35 46.7899 185.35 46.9899M188.69 45.5199V46.9299H189.86C189.95 46.9299 190.03 46.9899 190.04 47.0799C190.04 47.0899 190.04 47.0999 190.04 47.1099V48.1399C190.05 48.2299 189.99 48.2999 189.91 48.3199C189.9 48.3199 189.88 48.3199 189.87 48.3199H188.7V51.0999C188.7 51.4599 188.9 51.6699 189.35 51.6699H189.87C189.96 51.6599 190.03 51.7199 190.05 51.8099C190.05 51.8199 190.05 51.8299 190.05 51.8399V52.9999C190.05 53.1199 189.98 53.1699 189.87 53.1699H189.08C187.67 53.1699 187.02 52.4299 187.02 51.3299V48.2999H186.29C186.2 48.3099 186.13 48.2499 186.11 48.1699C186.11 48.1599 186.11 48.1399 186.11 48.1299V47.0999C186.1 47.0099 186.16 46.9299 186.26 46.9099C186.27 46.9099 186.28 46.9099 186.29 46.9099H187.04V45.5299C187.03 45.4399 187.09 45.3699 187.17 45.3499C187.18 45.3499 187.2 45.3499 187.21 45.3499H188.54C188.63 45.3499 188.7 45.4199 188.7 45.5099C188.7 45.5099 188.7 45.5199 188.7 45.5299M196.12 48.2499C196.12 48.3499 196.12 48.4399 195.98 48.4699L194.94 48.8399C194.82 48.8399 194.76 48.8399 194.72 48.7099C194.56 48.2699 194.11 47.9899 193.64 48.0399C193.1 48.0399 192.79 48.2499 192.79 48.5599C192.79 48.8699 193.01 48.9899 194.22 49.3099C195.62 49.6799 196.18 50.2899 196.18 51.2699C196.18 52.4799 195.2 53.2299 193.64 53.2299C192.08 53.2299 191.26 52.6699 190.94 51.7199C190.94 51.5799 190.94 51.5199 191.11 51.4499L192.03 50.9999C192.17 50.9299 192.24 50.9999 192.31 51.1399C192.52 51.6499 193.03 51.9599 193.58 51.9099C194.21 51.9099 194.56 51.6999 194.56 51.3599C194.56 51.0199 194.21 50.8499 193.09 50.5399C191.71 50.1799 191.13 49.5599 191.13 48.5799C191.13 47.3899 192.11 46.6199 193.57 46.6199C194.66 46.5099 195.7 47.1299 196.11 48.1499M206.65 44.9799V52.9399C206.65 53.0399 206.65 53.1099 206.47 53.1099H205.08C204.99 53.1099 204.91 53.0499 204.9 52.9499V49.7999H202.04V52.9599C202.04 53.0499 201.98 53.1199 201.89 53.1299C201.88 53.1299 201.87 53.1299 201.86 53.1299H200.43C200.34 53.1299 200.26 53.0699 200.25 52.9699V44.9799C200.25 44.8899 200.32 44.8099 200.42 44.8099C200.42 44.8099 200.43 44.8099 200.44 44.8099H201.86C201.95 44.7999 202.02 44.8599 202.04 44.9499C202.04 44.9599 202.04 44.9699 202.04 44.9799V48.1399H204.9V44.9799C204.9 44.8899 204.97 44.8099 205.07 44.8099H206.5C206.63 44.8099 206.68 44.8799 206.68 44.9799M209.67 49.1899V49.3999H211.86V49.1899C211.91 48.5899 211.46 48.0599 210.85 48.0099C210.25 47.9599 209.72 48.4099 209.67 49.0199C209.67 49.0799 209.67 49.1399 209.67 49.1899ZM209.67 50.5199V50.7599C209.58 51.2899 209.94 51.7999 210.48 51.8899C210.59 51.9099 210.71 51.9099 210.82 51.8899C211.32 51.9699 211.82 51.6999 212.02 51.2299C212.13 51.0499 212.18 51.0299 212.35 51.1099L213.25 51.5699C213.44 51.6599 213.45 51.7499 213.37 51.9199C212.87 52.8499 211.86 53.3799 210.81 53.2899C209.46 53.4699 208.23 52.5199 208.05 51.1799C208.03 51.0399 208.02 50.8899 208.03 50.7499V49.2799C207.97 47.9299 209.01 46.7799 210.36 46.7199C210.5 46.7199 210.65 46.7199 210.79 46.7399C212.11 46.6099 213.29 47.5699 213.42 48.8899C213.43 49.0099 213.43 49.1299 213.42 49.2599V50.2399C213.42 50.4099 213.36 50.5199 213.12 50.5199H209.68H209.67ZM218.36 46.9499V48.1699C218.36 48.3199 218.31 48.3699 218.15 48.3699H217.97C217.23 48.2799 216.54 48.7399 216.35 49.4599V52.9499C216.35 53.0399 216.29 53.1099 216.2 53.1199H214.76C214.68 53.1199 214.61 53.0599 214.61 52.9699C214.61 52.9699 214.61 52.9599 214.61 52.9499V46.9999C214.61 46.9199 214.66 46.8499 214.75 46.8399C214.76 46.8399 214.77 46.8399 214.78 46.8399H216.08C216.22 46.8399 216.25 46.9299 216.25 47.0199V47.9299C216.59 47.2299 217.3 46.7999 218.08 46.8299C218.31 46.8299 218.35 46.8299 218.35 47.0299M220.83 49.2199V49.4299H223.02V49.2199C223.07 48.6199 222.62 48.0899 222.01 48.0399C221.41 47.9899 220.88 48.4399 220.83 49.0499C220.83 49.1099 220.83 49.1699 220.83 49.2199ZM220.83 50.5499V50.7899C220.74 51.3199 221.1 51.8299 221.64 51.9199C221.75 51.9399 221.87 51.9399 221.98 51.9199C222.49 51.9999 222.98 51.7299 223.19 51.2599C223.29 51.0799 223.34 51.0599 223.51 51.1399L224.41 51.5999C224.6 51.6899 224.61 51.7799 224.53 51.9499C224.03 52.8799 223.02 53.4099 221.97 53.3199C220.62 53.4899 219.39 52.5299 219.23 51.1799C219.21 51.0399 219.21 50.9099 219.21 50.7699V49.2999C219.15 47.9499 220.19 46.7999 221.54 46.7399C221.68 46.7399 221.83 46.7399 221.97 46.7599C223.29 46.6299 224.47 47.5899 224.6 48.9099C224.61 49.0299 224.61 49.1499 224.6 49.2799V50.2599C224.6 50.4299 224.54 50.5399 224.3 50.5399H220.84L220.83 50.5499Z" fill="white"/>
</g>
</g>
<defs>
<clipPath id="clip0_2_1233">
<rect width="230" height="65" fill="white"/>
</clipPath>
</defs>
</svg>
