<svg width="65" height="65" viewBox="0 0 65 65" fill="none" xmlns="http://www.w3.org/2000/svg">
<path d="M10.838 55.1717C7.90312 52.3635 5.48554 49.0591 3.76472 45.3008C1.91722 41.289 0.829834 36.76 0.829834 32.0515V31.8615C0.829834 14.2733 15.1031 0 32.6913 0C50.2796 0 64.6162 14.2733 64.6162 31.8615C64.6162 32.1149 64.6162 32.3682 64.5528 32.6216H57.6062C57.6062 27.1425 55.8221 22.1067 52.7605 18.095C49.8256 14.2733 45.8139 11.3384 41.1054 9.74426L40.7253 9.3642L40.9154 8.66743L40.2186 8.79411L39.7752 8.22403L39.4585 8.85746H38.6983L39.0151 9.49088L38.5717 10.061L39.2051 10.251L39.3951 10.9478L39.9652 10.5677L40.5986 10.8844V10.1877C45.3177 11.7184 49.3928 14.6428 52.3171 18.475C55.252 22.3601 57.0361 27.2691 57.0361 32.6216H54.9986C54.9986 26.6357 52.581 21.2832 48.6221 17.4615C44.8004 13.7032 39.5113 11.3489 33.652 11.1589L34.0321 10.7789L32.5646 10.2721L32.2479 8.74133L30.9705 9.62813L29.5664 8.86801L29.4397 10.3988L27.9723 11.0322L29.123 12.1196L28.6796 13.6504L30.2104 13.4604L31.1711 14.7378L31.9946 13.397L33.5253 13.4604L33.0186 11.9929C38.8778 11.9929 44.2303 14.2838 48.052 18.0422C51.8737 21.7372 54.2279 26.8363 54.2279 32.6322H49.8362C49.8362 29.3172 48.8755 26.2557 47.2919 23.7114C45.9511 21.6105 44.167 19.8263 42.0661 18.4856L42.8262 17.7255L41.6121 17.2187L41.4221 15.9413L40.2714 16.5747L39.184 15.878L38.994 17.1554L37.7165 17.5988L38.6033 18.6228L38.1599 19.8369L39.5007 19.7736L40.1975 20.8609L40.9576 19.7736L42.235 19.9002L42.1717 19.5202C43.9558 20.7343 45.4233 22.3284 46.5634 24.1759C48.1576 26.5935 49.0444 29.465 49.0444 32.6533H43.1851C43.1851 30.3624 42.425 28.3882 41.1476 26.7941C40.0602 25.39 38.6033 24.3131 36.8825 23.6058L37.3259 23.0991L36.5658 22.8457L36.4391 21.9589L35.7424 22.4023L35.0456 21.9589L34.9189 22.7823L34.0954 23.0357L34.6655 23.6691L34.4121 24.4926L35.2356 24.4293L35.679 25.126L36.1857 24.4293L37.0092 24.556L36.9459 24.3026C38.4133 24.936 39.7541 25.9601 40.7042 27.1741C41.8549 28.6416 42.5517 30.5524 42.6151 32.6533H9.99345C10.0568 35.0075 10.5002 37.309 11.2075 39.4099C12.031 41.6374 13.1184 43.675 14.5225 45.5225L14.8392 45.1424L15.0925 45.5858H15.6626L15.4726 46.0926L15.7893 46.536L15.2826 46.6626L15.1559 47.2327L14.7125 46.916L14.2057 47.106V46.5993L13.699 46.3459L14.0791 45.9659L14.0157 45.5225C12.675 43.675 11.5981 41.7008 10.8275 39.5366C10.1307 37.3723 9.67673 35.0814 9.55004 32.6533H4.19756C4.2609 33.3501 4.26091 34.0574 4.32425 34.7542C4.38759 35.4509 4.51428 36.1583 4.64097 36.7917L4.831 36.5383L5.08437 37.0451H5.65445L5.40108 37.5518L5.78114 37.9952L5.21106 38.1219L5.14771 38.6286L4.70431 38.3119L4.19756 38.5653L4.13422 37.9952L3.69082 37.8052L4.07088 37.4251L3.94419 36.9184L4.26091 36.9817C4.13422 36.2216 4.00753 35.5143 3.94419 34.8175C3.88085 34.1207 3.8175 33.4134 3.8175 32.6533H1.46326C1.5266 37.1084 2.55064 41.2574 4.27146 45.0791C6.05562 48.8374 8.47321 52.279 11.5348 55.0872H11.5981L12.1049 54.3905L12.5483 55.1506H13.3717L13.055 55.9107L13.5618 56.5441L12.7383 56.7975L12.6116 57.621L11.9148 57.1142L11.1547 57.4943L11.0914 56.6708L10.3313 56.2908L10.9647 55.7207L10.838 55.2139V55.1717Z" fill="url(#paint0_radial_2_1173)"/>
<path d="M18.2903 40.6438V40.5804C18.2903 39.947 18.7337 39.4297 19.3777 39.4297H19.631C20.2645 39.4297 20.7184 39.9364 20.7184 40.5804V40.6438C20.7184 41.2138 20.275 41.7311 19.631 41.7311H19.3777C18.7442 41.7311 18.2903 41.2244 18.2903 40.6438ZM18.2903 51.2854V44.1487C18.2903 43.5153 18.7337 42.998 19.3777 42.998H19.631C20.2645 42.998 20.7184 43.5047 20.7184 44.1487V51.2854C20.7184 51.9188 20.275 52.4361 19.631 52.4361H19.3777C18.7442 52.4361 18.2903 51.9294 18.2903 51.2854ZM26.2504 51.2854V41.6678H22.3653V40.5804C22.3653 39.947 22.8721 39.4297 23.5161 39.4297H32.6902V40.5171C32.6902 41.1505 32.1835 41.6678 31.5395 41.6678H28.8686V51.2854C28.8686 51.9188 28.3618 52.4361 27.7178 52.4361H27.3378C26.7043 52.4361 26.2504 51.9294 26.2504 51.2854ZM39.3096 49.5646L39.3729 49.6279C39.753 49.6912 40.0697 49.9446 40.2597 50.3247C40.3864 50.7681 40.2597 51.1481 40.0064 51.4754C39.8163 51.6654 39.6263 51.7921 39.4363 51.9188C38.7395 52.4255 37.9055 52.6789 36.8286 52.6789C35.2345 52.6789 34.0204 52.1088 33.197 51.0214C32.6269 50.198 32.3102 49.1106 32.3102 47.7698C32.3102 46.2391 32.6902 45.025 33.5243 44.1382C34.3583 43.2514 35.3718 42.7974 36.5858 42.7974C37.9899 42.7974 39.1301 43.2408 39.9008 44.2015C40.5342 44.8983 40.9248 45.9223 41.0515 47.1998C41.0515 47.5798 40.9882 47.8332 40.7348 48.0866C40.5448 48.3399 40.2914 48.4033 39.9747 48.4033H34.8756C34.8756 49.1634 35.0656 49.744 35.4457 50.1874C35.8257 50.5675 36.3325 50.7575 36.9131 50.7575C37.2932 50.7575 37.6099 50.6942 37.8738 50.4408C38.0005 50.3775 38.1272 50.2508 38.1905 50.0607C38.4439 49.6807 38.8873 49.4907 39.3412 49.554L39.3096 49.5646ZM38.6128 46.9569C38.6128 46.1968 38.4228 45.6795 38.0427 45.2995C37.726 44.9194 37.2826 44.7294 36.7653 44.7294C36.1952 44.7294 35.7413 44.9194 35.4245 45.2995C35.0445 45.6795 34.9178 46.2602 34.9178 46.9569H38.6128ZM49.8879 46.0701H49.7612C49.3178 46.1968 48.8744 45.9435 48.6104 45.5634C48.5471 45.3734 48.4204 45.2467 48.2937 45.1833C47.977 44.93 47.5969 44.8033 47.143 44.8033C46.5096 44.8033 46.0556 44.9933 45.6755 45.4367C45.2955 45.8801 45.1055 46.5874 45.1055 47.6009C45.1055 48.6883 45.2955 49.5118 45.6755 49.9552C46.0556 50.3986 46.5623 50.6519 47.143 50.6519C47.6497 50.6519 48.0298 50.5253 48.3571 50.2085C48.4837 50.0819 48.6104 49.8918 48.7371 49.6385C48.9271 49.1951 49.4339 48.9417 49.9512 49.005L50.1412 49.0684C50.4579 49.1317 50.7747 49.3217 50.9013 49.6385C51.0914 49.9552 51.0914 50.3352 50.9013 50.6625C50.648 51.1059 50.3312 51.486 49.9406 51.8132C49.2439 52.3833 48.2832 52.7 47.0691 52.7C45.665 52.7 44.5882 52.2566 43.7541 51.3593C42.9201 50.4619 42.5401 49.3217 42.5401 47.7276C42.5401 46.1335 42.9201 44.9827 43.7541 44.0959C44.5776 43.2725 45.665 42.8185 47.0691 42.8185C48.2198 42.8185 49.17 43.0719 49.814 43.5786C50.1307 43.7687 50.384 44.022 50.5741 44.2754C50.8274 44.5921 50.8274 44.9722 50.7008 45.3628C50.5741 45.7534 50.2574 45.9962 49.8773 46.0596L49.8879 46.0701ZM55.6204 40.591V44.286C56.4438 43.3253 57.4045 42.8185 58.5553 42.8185C59.1254 42.8185 59.6427 42.9452 60.0861 43.1352C60.5295 43.3253 60.9095 43.642 61.1101 43.9587C61.3635 44.2754 61.5535 44.6555 61.6168 45.0461C61.6802 45.4367 61.7435 46.0701 61.7435 46.8936V51.2854C61.7435 51.9188 61.2368 52.4361 60.5928 52.4361H60.3394C59.7694 52.4361 59.2521 51.9294 59.2521 51.2854V47.4637C59.2521 46.4396 59.1887 45.8695 59.1254 45.6162C58.9987 45.2995 58.872 45.1094 58.6186 44.9828C58.3652 44.7927 58.0485 44.7294 57.7318 44.7294C57.2884 44.7294 56.9084 44.7927 56.5811 45.0461C56.2644 45.2361 56.011 45.5528 55.8843 45.9329C55.6943 46.313 55.6309 46.9569 55.6309 47.7171V51.2854C55.6309 51.9188 55.1242 52.4361 54.5436 52.4361H54.2902C53.6567 52.4361 53.1395 51.9294 53.1395 51.2854V40.5804C53.1395 39.947 53.6462 39.4297 54.2902 39.4297H54.5436C55.1136 39.4297 55.6309 39.9364 55.6309 40.5804L55.6204 40.591ZM18.4698 64.7985V55.6877C18.4698 55.1176 18.9765 54.6003 19.4938 54.6003H19.5571C20.1272 54.6003 20.5812 55.1071 20.5812 55.6877V63.0777H25.7436V63.7745C25.7436 64.3446 25.2369 64.7985 24.6562 64.7985H18.4803H18.4698ZM28.668 59.6361L28.2879 59.5727C27.9078 59.5094 27.5911 59.256 27.4644 58.8126C27.4011 58.4326 27.5278 57.9892 27.9079 57.7252C28.4146 57.4085 29.1219 57.2185 30.0721 57.2185C30.9589 57.2185 31.6029 57.3452 32.0463 57.5352C32.4897 57.7252 32.743 57.9786 32.9331 58.2953C33.1231 58.612 33.1864 59.1821 33.1864 60.0795V62.3704C33.1864 63.0038 33.1864 63.5211 33.2498 63.7745C33.3131 64.0912 33.4398 64.4713 33.6298 64.7985H32.4158C31.9724 64.7985 31.5923 64.5452 31.4551 64.1018L31.3917 64.0384C31.075 64.3551 30.6949 64.6085 30.3043 64.7352C29.9243 64.9252 29.5442 64.9886 29.0903 64.9886C28.3301 64.9886 27.7495 64.7985 27.3061 64.3551C26.8627 63.9751 26.6093 63.4683 26.6093 62.8243C26.6093 62.3809 26.736 62.0009 26.926 61.6736C27.1161 61.3463 27.4328 61.1035 27.7495 60.9135C28.1296 60.7235 28.6363 60.5968 29.3436 60.4701C30.2304 60.2801 30.8744 60.1534 31.2545 59.9634V59.7733C31.2545 59.3933 31.1278 59.1399 31.0011 58.9499C30.8111 58.8232 30.431 58.7598 29.9137 58.7598C29.5336 58.7598 29.2803 58.8232 29.0903 58.9499C28.9002 59.0766 28.7102 59.3299 28.6469 59.6466L28.668 59.6361ZM31.2756 61.2302C31.0222 61.3569 30.6421 61.4202 30.0615 61.5469C29.5548 61.6736 29.1747 61.8003 28.9741 61.8636C28.7207 62.0537 28.5941 62.307 28.5941 62.5604C28.5941 62.8771 28.7208 63.0672 28.9108 63.3205C29.1008 63.5106 29.3542 63.5739 29.6709 63.5739C30.051 63.5739 30.3677 63.4472 30.6949 63.2572C30.9483 63.0672 31.1383 62.8771 31.2017 62.6238C31.2017 62.4337 31.265 62.117 31.265 61.5997V61.2197L31.2756 61.2302ZM35.0339 64.7985V54.537H35.9946C36.5647 54.537 37.0187 54.9804 37.0187 55.561V58.232C37.6521 57.5352 38.3594 57.2079 39.1829 57.2079C40.0697 57.2079 40.8404 57.5247 41.4104 58.1686C42.0439 58.8654 42.2973 59.7628 42.2973 61.0402C42.2973 62.3176 41.9805 63.2677 41.4104 63.9751C40.777 64.6719 40.0697 64.9991 39.1829 64.9991C38.8028 64.9991 38.3594 64.8724 37.9688 64.6824C37.5254 64.429 37.2087 64.1757 36.8814 63.7217V63.785C36.8814 64.3551 36.438 64.8091 35.8574 64.8091H35.0339V64.7985ZM37.0081 60.9135C37.0081 61.737 37.1348 62.3176 37.3248 62.6343C37.7049 63.2044 38.1483 63.4578 38.7289 63.4578C39.1723 63.4578 39.4891 63.2677 39.8163 62.8877C40.1436 62.5076 40.2597 61.927 40.2597 61.1035C40.2597 60.2801 40.133 59.6361 39.8163 59.256C39.4996 58.876 39.1195 58.7493 38.6656 58.7493C38.1588 58.7493 37.7788 58.876 37.4515 59.256C37.1242 59.6361 37.0081 60.2167 37.0081 60.9135ZM43.1841 62.6977L44.3981 62.5076C44.7782 62.4443 45.1582 62.6343 45.4222 62.951C45.4855 63.0777 45.5489 63.2044 45.6755 63.2677C45.9289 63.4578 46.309 63.5845 46.7629 63.5845C47.2697 63.5845 47.6497 63.4578 47.9137 63.2677C48.1037 63.1411 48.167 63.0144 48.167 62.761C48.167 62.6343 48.1037 62.5076 48.0404 62.3809C47.9137 62.3176 47.7236 62.1909 47.4069 62.1276C45.8128 61.8109 44.7993 61.4941 44.3453 61.1669C43.7753 60.7868 43.4585 60.2062 43.4585 59.5094C43.4585 58.876 43.7119 58.2953 44.2187 57.8519C44.7254 57.4085 45.5594 57.2185 46.5729 57.2185C47.5864 57.2185 48.3571 57.4085 48.8638 57.7252C49.3706 58.042 49.6873 58.5487 49.8879 59.1927L48.8005 59.3827C48.4204 59.4461 48.0404 59.3194 47.7764 59.066L47.5864 58.876C47.3964 58.6859 47.0796 58.6226 46.6257 58.6226C46.1189 58.6226 45.7389 58.6859 45.475 58.876C45.3483 58.9393 45.2849 59.066 45.2849 59.256C45.2849 59.3827 45.3483 59.5094 45.475 59.5727C45.665 59.7628 46.2351 59.8895 47.3225 60.1428C48.3465 60.3962 49.1066 60.6496 49.4867 61.0296C49.9301 61.3463 50.1201 61.8531 50.1201 62.4971C50.1201 63.1938 49.8667 63.7745 49.2966 64.2812C48.7266 64.7246 47.8925 64.978 46.7524 64.978C45.7283 64.978 44.9682 64.788 44.3348 64.3446C43.7647 63.9645 43.3741 63.3839 43.1841 62.6871V62.6977Z" fill="white"/>
<defs>
<radialGradient id="paint0_radial_2_1173" cx="0" cy="0" r="1" gradientUnits="userSpaceOnUse" gradientTransform="translate(34.1728 31.4533) scale(45.2081 40.6106)">
<stop stop-color="#DEDEDE"/>
<stop offset="0.85" stop-color="#909090"/>
<stop offset="1" stop-color="#747474"/>
</radialGradient>
</defs>
</svg>
