<svg width="65" height="65" viewBox="0 0 65 65" fill="none" xmlns="http://www.w3.org/2000/svg">
<path d="M10.8378 55.1717C7.90288 52.3635 5.48529 49.0591 3.76448 45.3008C1.91698 41.289 0.82959 36.76 0.82959 32.0515V31.8615C0.82959 14.2733 15.1029 0 32.6911 0C50.2793 0 64.6159 14.2733 64.6159 31.8615C64.6159 32.1149 64.6159 32.3682 64.5526 32.6216H57.606C57.606 27.1425 55.8218 22.1067 52.7602 18.095C49.8253 14.2733 45.8136 11.3384 41.1051 9.74426L40.7251 9.3642L40.9151 8.66743L40.2183 8.79411L39.7749 8.22403L39.4582 8.85745H38.6981L39.0148 9.49088L38.5714 10.061L39.2049 10.251L39.3949 10.9478L39.965 10.5677L40.5984 10.8844V10.1877C45.3174 11.7184 49.3925 14.6428 52.3168 18.475C55.2517 22.3601 57.0359 27.2691 57.0359 32.6216H54.9984C54.9984 26.6357 52.5808 21.2832 48.6218 17.4615C44.8001 13.7032 39.511 11.3489 33.6518 11.1589L34.0318 10.7789L32.5644 10.2721L32.2477 8.74133L30.9703 9.62813L29.5662 8.86801L29.4395 10.3988L27.972 11.0322L29.1228 12.1196L28.6794 13.6504L30.2102 13.4604L31.1709 14.7378L31.9943 13.397L33.5251 13.4604L33.0184 11.9929C38.8776 11.9929 44.2301 14.2838 48.0517 18.0422C51.8734 21.7372 54.2277 26.8363 54.2277 32.6322H49.8359C49.8359 29.3172 48.8752 26.2556 47.2916 23.7114C45.9509 21.6105 44.1667 19.8263 42.0658 18.4856L42.826 17.7255L41.6119 17.2187L41.4219 15.9413L40.2711 16.5747L39.1837 15.878L38.9937 17.1554L37.7163 17.5988L38.6031 18.6228L38.1597 19.8369L39.5005 19.7736L40.1972 20.8609L40.9573 19.7736L42.2348 19.9002L42.1714 19.5202C43.9556 20.7343 45.423 22.3284 46.5632 24.1759C48.1573 26.5935 49.0441 29.465 49.0441 32.6533H43.1849C43.1849 30.3624 42.4248 28.3882 41.1474 26.7941C40.06 25.39 38.6031 24.3131 36.8823 23.6058L37.3257 23.0991L36.5656 22.8457L36.4389 21.9589L35.7421 22.4023L35.0453 21.9589L34.9187 22.7823L34.0952 23.0357L34.6653 23.6691L34.4119 24.4926L35.2354 24.4293L35.6788 25.126L36.1855 24.4293L37.009 24.5559L36.9456 24.3026C38.4131 24.936 39.7538 25.96 40.704 27.1741C41.8547 28.6416 42.5515 30.5524 42.6148 32.6533H9.9932C10.0565 35.0075 10.4999 37.309 11.2073 39.4099C12.0307 41.6374 13.1181 43.675 14.5222 45.5225L14.8389 45.1424L15.0923 45.5858H15.6624L15.4724 46.0925L15.7891 46.5359L15.2823 46.6626L15.1557 47.2327L14.7123 46.916L14.2055 47.106V46.5993L13.6988 46.3459L14.0788 45.9659L14.0155 45.5225C12.6747 43.675 11.5979 41.7008 10.8272 39.5366C10.1304 37.3723 9.67648 35.0814 9.5498 32.6533H4.19732C4.26066 33.3501 4.26066 34.0574 4.32401 34.7542C4.38735 35.4509 4.51404 36.1583 4.64072 36.7917L4.83075 36.5383L5.08412 37.0451H5.65421L5.40083 37.5518L5.78089 37.9952L5.21081 38.1219L5.14746 38.6286L4.70406 38.3119L4.19732 38.5653L4.13398 37.9952L3.69058 37.8052L4.07064 37.4251L3.94395 36.9184L4.26067 36.9817C4.13398 36.2216 4.00729 35.5143 3.94395 34.8175C3.8806 34.1207 3.81726 33.4134 3.81726 32.6533H1.46302C1.52636 37.1084 2.5504 41.2574 4.27122 45.0791C6.05538 48.8374 8.47297 52.279 11.5345 55.0872H11.5979L12.1046 54.3905L12.548 55.1506H13.3715L13.0548 55.9107L13.5615 56.5441L12.7381 56.7975L12.6114 57.621L11.9146 57.1142L11.1545 57.4943L11.0911 56.6708L10.331 56.2908L10.9645 55.7207L10.8378 55.2139V55.1717Z" fill="url(#paint0_radial_2_973)"/>
<path d="M18.29 40.6438V40.5804C18.29 39.947 18.7334 39.4297 19.3774 39.4297H19.6308C20.2642 39.4297 20.7182 39.9364 20.7182 40.5804V40.6438C20.7182 41.2138 20.2748 41.7311 19.6308 41.7311H19.3774C18.744 41.7311 18.29 41.2244 18.29 40.6438ZM18.29 51.2854V44.1487C18.29 43.5153 18.7334 42.998 19.3774 42.998H19.6308C20.2642 42.998 20.7182 43.5047 20.7182 44.1487V51.2854C20.7182 51.9188 20.2748 52.4361 19.6308 52.4361H19.3774C18.744 52.4361 18.29 51.9294 18.29 51.2854ZM26.2501 51.2854V41.6678H22.3651V40.5804C22.3651 39.947 22.8718 39.4297 23.5158 39.4297H32.69V40.5171C32.69 41.1505 32.1833 41.6678 31.5393 41.6678H28.8683V51.2854C28.8683 51.9188 28.3616 52.4361 27.7176 52.4361H27.3375C26.7041 52.4361 26.2501 51.9294 26.2501 51.2854ZM39.3093 49.5646L39.3727 49.6279C39.7527 49.6912 40.0695 49.9446 40.2595 50.3247C40.3862 50.7681 40.2595 51.1481 40.0061 51.4754C39.8161 51.6654 39.6261 51.7921 39.436 51.9188C38.7393 52.4255 37.9052 52.6789 36.8284 52.6789C35.2343 52.6789 34.0202 52.1088 33.1967 51.0214C32.6267 50.198 32.3099 49.1106 32.3099 47.7698C32.3099 46.2391 32.69 45.025 33.524 44.1382C34.358 43.2514 35.3715 42.7974 36.5856 42.7974C37.9897 42.7974 39.1299 43.2408 39.9005 44.2015C40.534 44.8983 40.9246 45.9223 41.0513 47.1998C41.0513 47.5798 40.9879 47.8332 40.7345 48.0866C40.5445 48.3399 40.2911 48.4033 39.9744 48.4033H34.8753C34.8753 49.1634 35.0654 49.744 35.4454 50.1874C35.8255 50.5675 36.3322 50.7575 36.9129 50.7575C37.2929 50.7575 37.6096 50.6942 37.8736 50.4408C38.0002 50.3775 38.1269 50.2508 38.1903 50.0607C38.4436 49.6807 38.887 49.4907 39.341 49.554L39.3093 49.5646ZM38.6126 46.9569C38.6126 46.1968 38.4225 45.6795 38.0425 45.2995C37.7258 44.9194 37.2824 44.7294 36.7651 44.7294C36.195 44.7294 35.741 44.9194 35.4243 45.2995C35.0442 45.6795 34.9176 46.2602 34.9176 46.9569H38.6126ZM49.8876 46.0701H49.7609C49.3175 46.1968 48.8741 45.9435 48.6102 45.5634C48.5468 45.3734 48.4202 45.2467 48.2935 45.1833C47.9768 44.93 47.5967 44.8033 47.1427 44.8033C46.5093 44.8033 46.0554 44.9933 45.6753 45.4367C45.2952 45.8801 45.1052 46.5874 45.1052 47.6009C45.1052 48.6883 45.2952 49.5118 45.6753 49.9552C46.0554 50.3986 46.5621 50.6519 47.1427 50.6519C47.6495 50.6519 48.0295 50.5253 48.3568 50.2085C48.4835 50.0819 48.6102 49.8918 48.7369 49.6385C48.9269 49.1951 49.4336 48.9417 49.951 49.005L50.141 49.0684C50.4577 49.1317 50.7744 49.3217 50.9011 49.6385C51.0911 49.9552 51.0911 50.3352 50.9011 50.6625C50.6477 51.1059 50.331 51.486 49.9404 51.8132C49.2436 52.3833 48.2829 52.7 47.0688 52.7C45.6647 52.7 44.5879 52.2566 43.7539 51.3593C42.9199 50.4619 42.5398 49.3217 42.5398 47.7276C42.5398 46.1335 42.9199 44.9827 43.7539 44.0959C44.5774 43.2725 45.6647 42.8185 47.0688 42.8185C48.2196 42.8185 49.1697 43.0719 49.8137 43.5786C50.1304 43.7687 50.3838 44.022 50.5738 44.2754C50.8272 44.5921 50.8272 44.9722 50.7005 45.3628C50.5738 45.7534 50.2571 45.9962 49.8771 46.0596L49.8876 46.0701ZM55.6201 40.591V44.286C56.4436 43.3253 57.4043 42.8185 58.555 42.8185C59.1251 42.8185 59.6424 42.9452 60.0858 43.1352C60.5292 43.3253 60.9093 43.642 61.1099 43.9587C61.3632 44.2754 61.5533 44.6555 61.6166 45.0461C61.6799 45.4367 61.7433 46.0701 61.7433 46.8936V51.2854C61.7433 51.9188 61.2365 52.4361 60.5926 52.4361H60.3392C59.7691 52.4361 59.2518 51.9294 59.2518 51.2854V47.4637C59.2518 46.4396 59.1885 45.8695 59.1251 45.6162C58.9984 45.2995 58.8717 45.1094 58.6184 44.9828C58.365 44.7927 58.0483 44.7294 57.7316 44.7294C57.2882 44.7294 56.9081 44.7927 56.5809 45.0461C56.2641 45.2361 56.0108 45.5528 55.8841 45.9329C55.694 46.313 55.6307 46.9569 55.6307 47.7171V51.2854C55.6307 51.9188 55.124 52.4361 54.5433 52.4361H54.2899C53.6565 52.4361 53.1392 51.9294 53.1392 51.2854V40.5804C53.1392 39.947 53.6459 39.4297 54.2899 39.4297H54.5433C55.1134 39.4297 55.6307 39.9364 55.6307 40.5804L55.6201 40.591ZM18.4695 64.7985V55.6877C18.4695 55.1176 18.9763 54.6003 19.4936 54.6003H19.5569C20.127 54.6003 20.5809 55.1071 20.5809 55.6877V63.0777H25.7434V63.7745C25.7434 64.3446 25.2366 64.7985 24.656 64.7985H18.4801H18.4695ZM28.6677 59.6361L28.2877 59.5727C27.9076 59.5094 27.5909 59.256 27.4642 58.8126C27.4009 58.4326 27.5276 57.9892 27.9076 57.7252C28.4144 57.4085 29.1217 57.2185 30.0718 57.2185C30.9586 57.2185 31.6026 57.3452 32.046 57.5352C32.4894 57.7252 32.7428 57.9786 32.9328 58.2953C33.1228 58.612 33.1862 59.1821 33.1862 60.0795V62.3704C33.1862 63.0038 33.1862 63.5211 33.2495 63.7745C33.3129 64.0912 33.4396 64.4713 33.6296 64.7985H32.4155C31.9721 64.7985 31.592 64.5452 31.4548 64.1018L31.3915 64.0384C31.0748 64.3551 30.6947 64.6085 30.3041 64.7352C29.924 64.9252 29.544 64.9886 29.09 64.9886C28.3299 64.9886 27.7492 64.7985 27.3058 64.3551C26.8624 63.9751 26.6091 63.4683 26.6091 62.8243C26.6091 62.3809 26.7358 62.0009 26.9258 61.6736C27.1158 61.3463 27.4325 61.1035 27.7493 60.9135C28.1293 60.7235 28.636 60.5968 29.3434 60.4701C30.2302 60.2801 30.8742 60.1534 31.2542 59.9634V59.7733C31.2542 59.3933 31.1275 59.1399 31.0008 58.9499C30.8108 58.8232 30.4308 58.7598 29.9135 58.7598C29.5334 58.7598 29.28 58.8232 29.09 58.9499C28.9 59.0766 28.71 59.3299 28.6466 59.6466L28.6677 59.6361ZM31.2753 61.2302C31.022 61.3569 30.6419 61.4202 30.0613 61.5469C29.5545 61.6736 29.1745 61.8003 28.9739 61.8636C28.7205 62.0537 28.5938 62.307 28.5938 62.5604C28.5938 62.8771 28.7205 63.0672 28.9105 63.3205C29.1006 63.5106 29.3539 63.5739 29.6707 63.5739C30.0507 63.5739 30.3674 63.4472 30.6947 63.2572C30.9481 63.0672 31.1381 62.8771 31.2014 62.6238C31.2014 62.4337 31.2648 62.117 31.2648 61.5997V61.2197L31.2753 61.2302ZM35.0337 64.7985V54.537H35.9944C36.5645 54.537 37.0184 54.9804 37.0184 55.561V58.232C37.6519 57.5352 38.3592 57.2079 39.1826 57.2079C40.0694 57.2079 40.8401 57.5247 41.4102 58.1686C42.0436 58.8654 42.297 59.7628 42.297 61.0402C42.297 62.3176 41.9803 63.2677 41.4102 63.9751C40.7768 64.6719 40.0694 64.9991 39.1826 64.9991C38.8026 64.9991 38.3592 64.8724 37.9686 64.6824C37.5252 64.429 37.2085 64.1757 36.8812 63.7217V63.785C36.8812 64.3551 36.4378 64.8091 35.8571 64.8091H35.0337V64.7985ZM37.0079 60.9135C37.0079 61.737 37.1346 62.3176 37.3246 62.6343C37.7046 63.2044 38.1481 63.4578 38.7287 63.4578C39.1721 63.4578 39.4888 63.2677 39.8161 62.8877C40.1434 62.5076 40.2595 61.927 40.2595 61.1035C40.2595 60.2801 40.1328 59.6361 39.8161 59.256C39.4994 58.876 39.1193 58.7493 38.6653 58.7493C38.1586 58.7493 37.7785 58.876 37.4513 59.256C37.124 59.6361 37.0079 60.2167 37.0079 60.9135ZM43.1838 62.6977L44.3979 62.5076C44.7779 62.4443 45.158 62.6343 45.4219 62.951C45.4853 63.0777 45.5486 63.2044 45.6753 63.2677C45.9287 63.4578 46.3087 63.5845 46.7627 63.5845C47.2694 63.5845 47.6495 63.4578 47.9134 63.2677C48.1034 63.1411 48.1668 63.0144 48.1668 62.761C48.1668 62.6343 48.1035 62.5076 48.0401 62.3809C47.9134 62.3176 47.7234 62.1909 47.4067 62.1276C45.8125 61.8109 44.7991 61.4941 44.3451 61.1669C43.775 60.7868 43.4583 60.2062 43.4583 59.5094C43.4583 58.876 43.7117 58.2953 44.2184 57.8519C44.7252 57.4085 45.5592 57.2185 46.5727 57.2185C47.5861 57.2185 48.3568 57.4085 48.8636 57.7252C49.3703 58.042 49.687 58.5487 49.8876 59.1927L48.8002 59.3827C48.4202 59.4461 48.0401 59.3194 47.7762 59.066L47.5861 58.876C47.3961 58.6859 47.0794 58.6226 46.6254 58.6226C46.1187 58.6226 45.7386 58.6859 45.4747 58.876C45.348 58.9393 45.2847 59.066 45.2847 59.256C45.2847 59.3827 45.348 59.5094 45.4747 59.5727C45.6647 59.7628 46.2348 59.8895 47.3222 60.1428C48.3463 60.3962 49.1064 60.6496 49.4864 61.0296C49.9298 61.3463 50.1199 61.8531 50.1199 62.4971C50.1199 63.1938 49.8665 63.7745 49.2964 64.2812C48.7263 64.7246 47.8923 64.978 46.7521 64.978C45.7281 64.978 44.968 64.788 44.3345 64.3446C43.7645 63.9645 43.3738 63.3839 43.1838 62.6871V62.6977Z" fill="black"/>
<defs>
<radialGradient id="paint0_radial_2_973" cx="0" cy="0" r="1" gradientUnits="userSpaceOnUse" gradientTransform="translate(34.1726 31.4533) scale(45.2081 40.6106)">
<stop stop-color="#08E6FF"/>
<stop offset="0.85" stop-color="#048FE3"/>
<stop offset="1" stop-color="#0138C8"/>
</radialGradient>
</defs>
</svg>
