<svg width="61" height="65" viewBox="0 0 61 65" fill="none" xmlns="http://www.w3.org/2000/svg">
<g clip-path="url(#clip0_2_1286)">
<mask id="mask0_2_1286" style="mask-type:luminance" maskUnits="userSpaceOnUse" x="0" y="0" width="61" height="65">
<path d="M60.99 0H0V65H60.99V0Z" fill="white"/>
</mask>
<g mask="url(#mask0_2_1286)">
<mask id="mask1_2_1286" style="mask-type:luminance" maskUnits="userSpaceOnUse" x="1" y="3" width="59" height="59">
<path d="M59.3399 3.31006H1.6499V61.6901H59.3399V3.31006Z" fill="white"/>
</mask>
<g mask="url(#mask1_2_1286)">
<path d="M30.4898 58.5302C44.6998 58.5302 56.2098 46.8802 56.2098 32.5002C56.2098 18.1202 44.6998 6.47021 30.4898 6.47021C16.2798 6.47021 4.76978 18.1302 4.76978 32.5002C4.76978 46.8702 16.2898 58.5302 30.4898 58.5302Z" fill="white"/>
<path d="M30.4898 3.31029C24.7898 3.31029 19.2098 5.02029 14.4698 8.23029C9.72982 11.4403 6.02982 16.0003 3.84982 21.3303C1.66982 26.6603 1.09982 32.5303 2.20982 38.1903C3.31982 43.8503 6.06982 49.0503 10.0998 53.1303C14.1298 57.2103 19.2698 59.9903 24.8698 61.1203C30.4698 62.2503 36.2598 61.6703 41.5398 59.4603C46.8098 57.2503 51.3198 53.5103 54.4798 48.7103C57.6498 43.9103 59.3398 38.2703 59.3398 32.4903C59.3498 28.6703 58.6198 24.8803 57.1798 21.3503C55.7398 17.8103 53.6398 14.6003 50.9698 11.8903C48.3098 9.18029 45.1398 7.03029 41.6598 5.55029C38.1698 4.08029 34.4398 3.31029 30.6598 3.30029H30.4898V3.31029ZM30.9798 33.4903L27.9798 43.7403H44.0398C44.1498 43.7403 44.2498 43.7503 44.3498 43.7903C44.4498 43.8303 44.5398 43.8903 44.6198 43.9603C44.6998 44.0303 44.7598 44.1203 44.7998 44.2203C44.8398 44.3203 44.8698 44.4203 44.8698 44.5303V44.8003L43.4698 49.6803C43.4098 49.9103 43.2698 50.1103 43.0798 50.2503C42.8898 50.3903 42.6598 50.4603 42.4198 50.4503H17.8498L21.9698 36.2403L17.3598 37.6503L18.4098 34.4003L23.0198 32.9903L28.8198 13.0603C28.8798 12.8303 29.0198 12.6303 29.2098 12.4903C29.3998 12.3503 29.6298 12.2803 29.8698 12.2803H36.0898C36.1998 12.2803 36.2998 12.2903 36.3998 12.3303C36.4998 12.3703 36.5898 12.4303 36.6698 12.5003C36.7498 12.5703 36.8098 12.6603 36.8498 12.7603C36.8898 12.8603 36.9198 12.9603 36.9198 13.0703V13.3403L32.0298 30.1603L36.6398 28.7503L35.6598 32.1403L30.9798 33.4803V33.4903Z" fill="#737373"/>
</g>
</g>
</g>
<defs>
<clipPath id="clip0_2_1286">
<rect width="60.99" height="65" fill="white"/>
</clipPath>
</defs>
</svg>
