<svg width="115" height="65" viewBox="0 0 115 65" fill="none" xmlns="http://www.w3.org/2000/svg">
<g clip-path="url(#clip0_2_1046)">
<mask id="mask0_2_1046" style="mask-type:luminance" maskUnits="userSpaceOnUse" x="0" y="0" width="115" height="65">
<path d="M115 0H0V65H115V0Z" fill="white"/>
</mask>
<g mask="url(#mask0_2_1046)">
<path d="M55.89 56.7302C50.18 61.4702 42.77 64.3402 34.68 64.3402C16.62 64.3402 1.97998 50.0802 1.97998 32.5002C1.97998 14.9202 16.62 0.660156 34.68 0.660156C42.77 0.660156 50.18 3.52016 55.89 8.27016C61.6 3.53016 69.01 0.660156 77.1 0.660156C95.16 0.660156 109.8 14.9102 109.8 32.5002C109.8 50.0902 95.16 64.3402 77.1 64.3402C69.01 64.3402 61.6 61.4802 55.89 56.7302Z" fill="#ED0006"/>
<path d="M55.8899 56.7302C62.9199 50.8902 67.3799 42.2002 67.3799 32.5002C67.3799 22.8002 62.9199 14.1102 55.8899 8.27016C61.5999 3.53016 69.0099 0.660156 77.0999 0.660156C95.1599 0.660156 109.8 14.9102 109.8 32.5002C109.8 50.0902 95.1599 64.3402 77.0999 64.3402C69.0099 64.3402 61.5999 61.4802 55.8899 56.7302Z" fill="#F9A000"/>
<path d="M55.8899 56.73C62.9199 50.89 67.3799 42.2 67.3799 32.5C67.3799 22.8 62.9199 14.11 55.8899 8.27002C48.8599 14.11 44.3999 22.8 44.3999 32.5C44.3999 42.2 48.8599 50.89 55.8899 56.73Z" fill="#FF5E00"/>
</g>
</g>
<defs>
<clipPath id="clip0_2_1046">
<rect width="115" height="65" fill="white"/>
</clipPath>
</defs>
</svg>
