<svg width="158" height="75" viewBox="0 0 158 75" fill="none" xmlns="http://www.w3.org/2000/svg">
<path d="M52.3956 56.7487L54.8 55.1529C50.4587 46.8418 48.2881 37.7327 48.2881 27.8258C48.2881 20.113 50.1916 13.5638 53.9985 8.17819C57.8723 2.79255 63.3155 0.0997328 70.3283 0.0997328C74.0017 0.0997328 77.1074 0.731382 79.6453 1.99468C78.9774 5.71808 77.7752 12.2008 76.0387 21.4428C72.2986 41.3231 70.4285 52.7261 70.4285 55.6516C70.4285 61.9681 71.4971 66.6888 73.6344 69.8138C70.6957 71.742 67.9907 73.0718 65.5195 73.8032C63.0484 74.5346 59.8425 74.9003 55.902 74.9003C52.0283 74.9003 48.4885 74.0692 45.2826 72.4069C42.1436 70.7447 39.5388 68.5505 37.4684 65.8245C35.4647 63.0319 33.7616 59.6077 32.359 55.5519C29.8879 48.4375 28.3851 39.3949 27.8508 28.4242H26.2479C23.1756 42.254 21.6395 51.9282 21.6395 57.4468C21.6395 62.9654 22.6413 67.3205 24.645 70.512C20.6377 73.504 16.4634 75 12.1221 75C7.78086 75 4.6752 73.7699 2.80512 71.3098C0.935039 68.7832 0 65.0598 0 60.1396C0 55.1529 2.10384 41.0904 6.31152 17.9521L1.00183 7.28058C8.48214 2.49335 15.161 0.0997328 21.0384 0.0997328C26.9158 0.0997328 31.3572 1.13032 34.3627 3.19149C37.3682 5.18617 39.472 8.14495 40.6742 12.0678C41.8764 15.9907 42.7447 20.1463 43.279 24.5346C43.8801 28.8564 44.8819 34.0758 46.2844 40.1928C47.7538 46.3098 49.7908 51.8285 52.3956 56.7487Z" fill="white"/>
<path d="M103.2 75C98.9255 75 95.8533 73.7699 93.9832 71.3098C92.1131 68.7832 91.1781 65.0598 91.1781 60.1396C91.1781 55.1529 93.2819 41.0904 97.4896 17.9521L92.1799 7.28058C99.727 2.42686 106.606 0 112.818 0C116.958 0 119.43 1.99468 120.231 5.98404C127.11 2.06117 133.856 0.0997328 140.468 0.0997328C144.809 0.0997328 148.616 1.09707 151.889 3.09175C155.763 5.41888 157.699 9.44149 157.699 15.1596C157.699 24.6011 152.457 31.4495 141.971 35.7048C152.657 37.5665 158 43.5173 158 53.5572C158 60.0731 155.295 65.2593 149.885 69.1157C144.475 72.9721 138.398 74.9003 131.652 74.9003C124.973 74.9003 119.597 73.504 115.522 70.7114C111.582 73.5705 107.474 75 103.2 75ZM134.858 51.363C134.858 48.238 133.923 45.9441 132.053 44.4814C130.249 43.0186 127.812 42.2872 124.739 42.2872C121.667 42.2872 118.227 42.9189 114.42 44.1822C113.352 49.8338 112.818 54.6543 112.818 58.6436C116.09 60.1729 119.496 60.9375 123.036 60.9375C126.576 60.9375 129.415 60.1064 131.552 58.4442C133.756 56.7819 134.858 54.4215 134.858 51.363ZM128.346 13.2646C125.741 13.2646 122.936 13.7633 119.931 14.7606C119.53 17.3537 118.294 24.0027 116.224 34.7074C121.767 34.3085 126.476 32.9787 130.35 30.7181C134.223 28.391 136.16 25.0665 136.16 20.7447C136.16 15.758 133.555 13.2646 128.346 13.2646Z" fill="#F1510C"/>
</svg>
