<svg width="201" height="65" viewBox="0 0 201 65" fill="none" xmlns="http://www.w3.org/2000/svg">
<g clip-path="url(#clip0_2_1254)">
<mask id="mask0_2_1254" style="mask-type:luminance" maskUnits="userSpaceOnUse" x="0" y="0" width="201" height="65">
<path d="M200.75 0H0V65H200.75V0Z" fill="white"/>
</mask>
<g mask="url(#mask0_2_1254)">
<path d="M124.08 0.839844C129.84 0.839844 134.5 2.20984 137.43 3.44984L135.41 16.6898L134.06 16.0398C131.37 14.7998 127.81 13.5598 122.97 13.6898C117.09 13.6898 114.46 16.3598 114.4 18.9698C114.4 21.8398 117.59 23.7298 122.79 26.5398C131.37 30.9098 135.34 36.2598 135.28 43.2298C135.16 55.9498 124.99 64.1598 109.37 64.1598C102.69 64.0898 96.26 62.5898 92.77 60.8998L94.85 47.1398L96.81 48.1198C101.65 50.3998 104.83 51.3798 110.78 51.3798C115.07 51.3798 119.66 49.4898 119.72 45.3798C119.72 42.7098 117.76 40.7498 112 37.7498C106.37 34.8098 98.83 29.9198 98.95 21.1198C99.01 9.18984 109.36 0.839844 124.06 0.839844H124.08Z" fill="#8A8A8A"/>
<path d="M68.5901 63.2497H83.4701L92.7901 1.94971H77.9101L68.6001 63.2497H68.5901Z" fill="#8A8A8A"/>
<path fill-rule="evenodd" clip-rule="evenodd" d="M175.59 1.94971H164.08C160.53 1.94971 157.83 3.05971 156.3 7.03971L134.19 63.2497H149.81C149.81 63.2497 152.38 55.6797 152.93 54.0497H172.04C172.47 56.1997 173.82 63.2497 173.82 63.2497H187.6L175.59 1.94971ZM157.22 41.5297C158.45 38.0097 163.16 24.3797 163.16 24.3797C163.14 24.4297 163.33 23.8597 163.62 22.9997C164.05 21.7397 164.68 19.8697 165.12 18.5097L166.16 23.7897C166.16 23.7897 168.98 38.4597 169.59 41.5297H157.22Z" fill="#8A8A8A"/>
<path d="M41.5802 43.7497L56.1602 1.94971H71.9002L48.5002 63.1797H32.7602L19.4102 9.57971C28.8402 14.8597 37.2902 25.4897 39.9902 35.2697L41.5802 43.7497Z" fill="#8A8A8A"/>
<path d="M28.0501 1.94971H4.10011L3.86011 3.18971C22.5401 8.27971 34.9101 20.5397 40.0001 35.2797L34.7901 7.10971C33.9301 3.18971 31.3001 2.08971 28.0501 1.95971V1.94971Z" fill="white"/>
</g>
</g>
<defs>
<clipPath id="clip0_2_1254">
<rect width="200.75" height="65" fill="white"/>
</clipPath>
</defs>
</svg>
